<?xml version="1.0" encoding="utf-8"?>
<!-- Generator: Adobe Illustrator 26.0.1, SVG Export Plug-In . SVG Version: 6.00 Build 0)  -->
<svg version="1.1" id="Layer_1" xmlns="http://www.w3.org/2000/svg" xmlns:xlink="http://www.w3.org/1999/xlink" x="0px" y="0px"
	 viewBox="0 0 1734.9 759.8" style="enable-background:new 0 0 1734.9 759.8;" xml:space="preserve">
<g>
	<path d="M875.5,24.1c-8.8,1.6-8.4,15.9,10.9,36.7l0,0c9.1-23.6,1.5-34.6-6.4-37.1c-3.2,9.2,4,13.4,4.5,18.5
		C879.7,39.6,874.4,34.5,875.5,24.1z"/>
	<path d="M859.5,24.1c8.8,1.6,8.4,15.9-10.8,36.7l0,0c-9.2-23.6-1.5-34.6,6.3-37.1c3.2,9.2-4,13.4-4.5,18.5
		C855.3,39.6,860.7,34.5,859.5,24.1z"/>
	<path d="M1080.7,253.6c-5.3,0.3-10.7,6-5.4,22.1c13.4-10,14.1-18.9,8.4-21.2c0.4,6.7-3.3,9-6.5,9.9
		C1077.6,261.3,1082.5,259.8,1080.7,253.6z"/>
	<path d="M654.6,253.8c5.3,0.3,10.7,5.9,5.4,22.1c-13.4-9.9-14.2-18.8-8.4-21.2c-0.4,6.7,3.3,9,6.6,9.9
		C657.7,261.6,652.8,260.1,654.6,253.8z"/>
	<polygon points="1075.3,275.7 1075.3,275.7 1075.3,275.7 	"/>
	<polygon points="660,276 660,276 660,276 	"/>
	<path d="M867.7,337.3c7.4-10.3,7.7-18.8,1.9-23.3c-0.6,1.8-1.2,3.4-1.9,5c-0.7-1.5-1.3-3.2-1.9-5C860,318.5,860.2,327,867.7,337.3z
		"/>
	<path d="M887.2,329.3c-2.2,13.2,7,31.8,44.9,34h0c-14.2-42.2-33-52.4-41.3-40.4c14.6,5.2,17.7,16.4,17.9,25.4
		C902.3,344.1,901.8,330.7,887.2,329.3z"/>
	<path d="M848.2,329.4c2.3,13.2-7,31.8-44.9,34.1h0c14.1-42.2,32.9-52.4,41.2-40.4c-14.6,5.2-17.7,16.5-17.8,25.4
		C833.1,344.2,833.6,330.8,848.2,329.4z"/>
	<path d="M1220.8,407.1c9.4-2.6,18.9-15.5,9.3-44.7l0,0c-23.7,24.2-24.9,41.7-14.6,44c-0.9-12.7,5.7-18.6,11.5-21.6
		C1226.1,391,1217.5,395.7,1220.8,407.1z"/>
	<path d="M514.7,407.6c-9.4-2.6-18.9-15.5-9.3-44.7l0,0c23.7,24.2,24.9,41.6,14.6,44c0.9-12.7-5.7-18.6-11.5-21.6
		C509.3,391.5,518,396.2,514.7,407.6z"/>
	<path d="M1171.3,443.9c3.2,9.2,16.7,17.9,45.2,6.3l0,0c-25.7-22-43.2-22.1-44.9-11.6c12.6-1.7,18.9,4.4,22.3,10.1
		C1187.8,448.1,1182.5,439.8,1171.3,443.9z"/>
	<path d="M564.2,444.2c-3.2,9.2-16.7,17.9-45.2,6.4l0,0c25.7-22.1,43.2-22.2,44.9-11.7c-12.6-1.7-18.9,4.4-22.3,10.1
		C547.8,448.5,553,440.2,564.2,444.2z"/>
	<path d="M867.6,139.2c3.1,6.5,5.9,13.2,8.4,20.1c11.6,31.7,16.6,65.9,13.6,99.5h0c-1.8,20.5-6.4,40.8-10.7,61.4l0,0
		c-4.3,20.5-8.4,41.3-9.2,62.6c-0.8,21.3,2,43.2,11,62.8c5.7,12.6,14.2,24.1,24.9,33c0.1,1.2,0.3,2.5,0.5,3.7
		c3,17.3,13.2,33.3,27.7,43.2c8.5,5.8,18.2,9.5,28.1,12c10,2.5,20.2,3.8,30.4,5c10.2,1.2,20.3,2.3,30.2,4.5l0,0
		c9.8,2.2,19.5,5.4,28,10.6c15.8,9.6,27.4,26.1,31.2,44.3c2.9,14.2,1.1,29.4-5,42.6c2.5-6.8,4.3-14.7-0.3-25.2
		c-14.2,6.9-26,32-3.4,80.7v0c31.3-48.6,28.8-79.4,11.9-80.9c4.6,22-4.2,34-12.7,40.8c-0.1-4.6,2.1-9.1,4-14.1
		c6.7-13.4,9-29.1,6.1-43.9c-3.6-18.4-15.1-35.2-31.1-45.2c-8.6-5.4-18.4-8.8-28.3-11.1c-10-2.3-20.2-3.6-30.4-4.8
		c-10.1-1.3-20.3-2.7-30.1-5.2c-9.7-2.5-19.1-6.2-27.2-11.9c-13.8-9.7-23.4-25.1-26.1-41.7c0-0.2-0.1-0.4-0.1-0.5
		c5.1,3.8,10.6,6.9,16.5,9.3c0,0,0,0,0,0c10.2,4.1,21.5,5.9,32.5,4.5c11-1.4,21.7-6,29.9-13.6c8.3-7.5,13.9-18,15.1-29.1
		c1.2-11.2-2.1-22.8-9.5-31.3c-5-5.7-11.5-9.9-18.7-12.1c-7.1-2.2-14.8-2.5-22.1-1.1l0,0c-14.6,2.8-27.3,12.1-35.6,24.1c0,0,0,0,0,0
		c-7.7,11.1-12,24.5-12.2,38c-7.8-7.7-14.1-17-18.6-27c0,0,0,0,0,0c-8.3-18.5-10.6-39.3-9.7-59.9c0.9-20.5,5.2-40.9,9.7-61.2
		c4.5-20.4,9.4-41,11.5-62.2l0,0c3.4-34.9-1.3-70.5-13.1-103.6c-4.7-13.2-10.6-26.1-17.5-38.4c-6.9,12.3-12.7,25.1-17.4,38.4
		c-11.7,33.1-16.4,68.7-12.9,103.6l0,0c2.1,21.2,7,41.8,11.6,62.2c4.5,20.4,8.8,40.7,9.8,61.2c0.9,20.5-1.4,41.4-9.6,59.9l0,0
		c-4.5,10-10.8,19.4-18.5,27.1c-0.2-13.5-4.5-26.9-12.2-38c0,0,0,0,0,0c-8.4-12-21.1-21.3-35.6-24.1c0,0,0,0,0,0
		c-7.3-1.4-14.9-1-22.1,1.2c-7.1,2.2-13.7,6.4-18.7,12.1c-7.4,8.5-10.7,20.2-9.4,31.3c1.3,11.2,6.9,21.6,15.1,29.1
		c8.3,7.5,18.9,12.1,30,13.5c11,1.4,22.3-0.4,32.5-4.5c0,0,0,0,0,0c5.9-2.4,11.4-5.6,16.5-9.4c0,0.2-0.1,0.4-0.1,0.5
		c-2.7,16.5-12.3,32-26.1,41.7c-8.1,5.7-17.5,9.4-27.2,12c-9.8,2.6-19.9,4-30.1,5.3c-10.1,1.3-20.3,2.6-30.4,4.9
		c-9.9,2.3-19.6,5.7-28.3,11.1c-16,10-27.5,26.8-31.1,45.2c-2.9,14.8-0.6,30.5,6.1,43.9c1.9,5.1,4.1,9.5,4,14.1
		c-8.5-6.8-17.3-18.8-12.8-40.8c-17,1.5-19.4,32.3,12,80.9l0,0c22.6-48.7,10.8-73.7-3.5-80.7c-4.5,10.5-2.7,18.4-0.2,25.2
		c-6.1-13.2-8-28.4-5.1-42.6c3.7-18.2,15.3-34.7,31.1-44.3c8.5-5.2,18.2-8.5,28-10.7c0,0,0,0,0,0c9.9-2.2,20.1-3.3,30.2-4.5
		c10.2-1.2,20.4-2.5,30.4-5c9.9-2.5,19.6-6.2,28.1-12c14.4-10,24.6-25.9,27.6-43.2c0.2-1.2,0.4-2.5,0.5-3.7
		c10.7-8.8,19.2-20.4,24.9-33c8.9-19.7,11.7-41.5,10.9-62.8c-0.8-21.3-4.9-42.1-9.3-62.6l0,0c-4.3-20.5-8.9-40.9-10.8-61.4l0,0
		c-3-33.6,1.9-67.9,13.5-99.5C861.7,152.5,864.5,145.8,867.6,139.2z M1276.7,500c2.2-6.3,5.4-12.1,9.5-17.4
		C1283.4,486.8,1279.8,492.9,1276.7,500z M449.4,483.1c4,5.2,7.3,11.1,9.5,17.4C455.8,493.4,452.2,487.3,449.4,483.1z M1297,473
		c-3.5,3.4-6.6,7.3-9.2,11.4c0.8-2.6,1.6-4.7,2.1-6.1c1.8-1.9,3.7-3.8,5.8-5.4c2.8-2.3,5.8-4.4,9-6.1
		C1301.9,468.6,1299.3,470.7,1297,473z M431,467.2c3.2,1.8,6.2,3.8,9,6.1c2,1.7,4,3.5,5.8,5.4c0.5,1.4,1.2,3.5,2.1,6.1
		c-2.6-4.1-5.7-8-9.2-11.4C436.2,471.2,433.7,469.1,431,467.2z M1350.5,456.4c-1.1-0.2-2.1-0.3-3.2-0.5c10.2,1,20.2,4.5,28.9,9.9
		c6.3,3.9,12,8.9,16.8,14.6C1381.8,468.1,1366.8,459.3,1350.5,456.4z M342.5,481c4.8-5.7,10.5-10.6,16.8-14.6
		c8.7-5.4,18.7-8.9,28.9-9.9c-1.1,0.1-2.1,0.3-3.2,0.5C368.7,459.9,353.7,468.7,342.5,481z M920.3,434L920.3,434
		c8-11.2,20-19.9,33.4-22.2l0,0c6.7-1.2,13.7-0.8,20.1,1.2c0,0,0,0,0,0c6.4,2.1,12.3,5.8,16.6,10.9c6.4,7.5,9.3,18,8.1,27.8
		c-1.2,9.9-6.4,19.2-13.8,25.9c-7.4,6.7-17.2,10.8-27.1,11.9c-10,1.2-20.3-0.6-29.7-4.4c-7.1-2.9-13.7-7.2-19.4-12.3
		C908.1,459.1,912.3,445.2,920.3,434z M827.2,472.9c-5.8,5.1-12.3,9.4-19.4,12.3c-9.3,3.9-19.7,5.6-29.6,4.5
		c-10-1.2-19.7-5.2-27.2-11.9c-7.4-6.7-12.6-16-13.8-25.9c-1.2-9.8,1.6-20.3,8.1-27.9c4.3-5.1,10.2-8.9,16.5-10.9c0,0,0,0,0,0
		c6.4-2.1,13.4-2.4,20.1-1.3v0c13.4,2.3,25.4,11,33.4,22.2l0,0C823.2,445.3,827.5,459.2,827.2,472.9z M867.5,62.3
		c33.6,35,62.3,74.5,84.8,117.5c18.5,35.2,32.9,72.6,46.2,110.2c13.4,37.8,25.7,76,40.3,113.6c0.7,1.8,1.4,3.7,2.2,5.5
		c-1.9-4.1-3.7-8.2-5.5-12.3v0c-17.2-39.1-32.5-79.3-49.3-119.2c-16.7-39.8-35-79.4-57.9-116.7c-17.6-28.6-38-55.5-60.8-80.3
		c-22.7,24.8-43.1,51.8-60.7,80.4c-22.9,37.4-41.1,77-57.8,116.8c-16.7,39.9-31.9,80.1-49.1,119.3l0,0c-1.8,4.1-3.6,8.2-5.5,12.3
		c0.7-1.8,1.4-3.7,2.1-5.5c14.5-37.5,26.8-75.8,40.1-113.6c13.3-37.7,27.7-75,46.1-110.3C805.3,136.9,834,97.3,867.5,62.3z
		 M867.6,117.5c15.1,17.5,29,36,41.5,55.5c22.8,35.3,41.4,73.5,58.8,112.5c17.4,39.1,33.6,79.1,51.9,118.4
		c10.5,22.7,21.9,45.1,34.5,66.7c0.4,50,13.9,99.7,38.9,142.7c26,44.8,64.2,82.1,109.2,106.9c11.5,6.4,24.2,12.1,37.6,12
		c6.7-0.1,13.5-1.7,19.2-5.3c5.7-3.5,10.3-9,12.2-15.5c0,0,0,0,0,0c2.2-7.4,0.5-15.7-4.1-21.7c-3-4.6-8.8-12.4-14.8-14.8
		c-8.7-3.6-16.1-0.6-17.3,8.4c-1.2,9,3.7,20.6,10,22.8c6.3,2.3,10.3-3.7,9.1-9.6c-1-4.8-7.6-10.9-3.2-14.4c3.5-2.8,13,5.7,16.8,9.4
		c3.5,5.8,4.5,13.1,2.5,19.5c-1.9,6.1-6.4,11.2-11.9,14.4c-5.5,3.2-12,4.6-18.3,4.5c-12.8-0.1-24.8-6-36.1-12.5
		c-43.9-25.6-80.5-63.3-104.7-107.6c-20.4-37.3-32.1-79.2-34.1-121.4c6.2,9.9,12.8,19.6,19.6,29.1c25.4,35.2,56.1,67.1,92.5,91.1
		c32.3,21.3,69.9,36.2,108.9,37.1c19.5,0.4,39.2-2.9,57.3-10.2c6.5-2.6,12.8-5.8,18.8-9.5c34.8-9,68-27.1,90.3-54.5
		c10-12.2,18.2-25.9,23.5-40.7c5.3-14.8,7.7-30.7,6.1-46.2c-0.8-7.8-10-32.1-12.7-39.4c-10.2,9.3-8.1,34.7,11.7,39.5
		c0.9,15.4-2.2,30.8-8,44.9c-5.8,14.1-14.5,27-24.6,38.4c-19.1,21.3-43.8,39.5-70.7,49.3c17.1-9,32.4-20.5,44-34.8
		c9.9-12.2,18.2-25.9,23.5-40.7c5.3-14.8,7.7-30.7,6.1-46.2c-0.8-7.8-2.6-15.4-5.3-22.7c-14.7,9.1-5.6,32.4,1.5,39.5
		c0.9,15.4,0.6,14.1-5.3,28.3c-5.8,14.1-14.5,27-24.6,38.4c-8.9,10-19.5,19.2-31,27.1c1.4-1.5,2.7-2.9,3.9-4.5
		c13-15.6,21.6-34.9,23.5-55.1c1.2-12.9-0.3-26-4.5-38.2c-0.8-2.8-1.8-5.5-2.9-8.1l0,0c-6.1-14.4-16.6-27.1-29.9-35.2
		c-13.3-8.2-29.5-11.7-45-9.4c0,0-0.1,0-0.1,0c-13.7,1.3-26.9,6.7-37.3,15.6c-11.4,9.9-19.1,23.8-21.3,38.6
		c-1.6,5.5-2.7,11.2-2.7,16.9c0.2,24.5,11.1,43.9,28.2,45.2c17.1,1.3,34.2-14.7,33.6-32.4s-14.5-27.2-24.1-22.5
		c-7.9,3.9-13.8,23.2-23.5,11.9c-6.9-8.1-0.9-31.2,3.1-43.9c2.7-4.3,5.9-8.3,9.6-11.9c3.2-3.1,6.8-5.9,10.7-8.2
		c12.9-6.3,28-8.2,42.1-5.4c18.8,3.8,35.7,15.8,46.1,31.7c10.5,16,14.6,35.8,12.4,54.7c-2.2,18.9-10.7,36.9-23.2,51.2
		c-12,13.8-27.7,24.3-44.8,30.8v0c-7,2.7-14.3,4.7-21.7,6.1c-0.3,0-0.6,0.1-0.9,0.2l0,0l0,0c-10.3,1.9-20.8,2.6-31.3,2.1
		c-36.7-1.4-72-16.5-102.6-37.5c-34.5-23.7-63.3-55.1-87.3-89.7c-2.7-3.9-5.3-7.8-7.9-11.7c-17.9-30.4-32.3-62.9-44.8-96
		c-4.4-11.5-8.6-23.2-12.6-34.9c15.2,22.3,32.5,38.3,58.1,49.6c29,12.8,61.7,16.6,92.7,10.7c31-5.9,59.1-20.7,85.6-36.7
		c26.5-15.9,52.1-33.2,80.3-45.1c17.8-7.5,37.2-12.8,56.1-9.6c9.4,1.6,18.6,5.4,26,11.5c7.4,6.1,13,14.6,14.9,24.1
		c1.3,6.6,0.9,13.5-1.3,19.9c-0.2,0.5-0.4,1-0.6,1.6c0-0.1,0-0.2,0-0.2l0,0c0,0-6.7,15.2-12.6,14.6c-5.9-0.7-2.3-7.3-3.5-11
		c-1.5-4.5-8.1-7-13.1-3.1c-5,4-4.4,13.7,0.8,19.4c5.3,5.6,13.8,4.8,20.5-0.9c5.4-4.6,7.2-13.8,7.8-17.4c0.4-0.9,0.8-1.8,1.1-2.8
		c2.4-6.4,3-13.5,1.8-20.2c-1.8-9.7-7.3-18.6-14.7-25c-7.5-6.4-16.9-10.5-26.6-12.4c-19.4-3.7-39.5,1.3-57.7,8.6
		c-1.5,0.6-3,1.2-4.6,1.9l67-49.2l-71.1,47.7c2.3-2.4,4.3-5.1,6-8c8.6-14.4,12.3-31.3,10.8-47.7c-1.6-16.4-8.4-32.1-19.2-44.2
		c-10.8-12.1-25.4-20.6-41-23.9c-9.1-2-14.3-2.8-23.5-1.3c9.2-1,14.3,0.3,23.2,2.7c15.1,4,28.8,13,38.5,25c9.7,12,15.3,27.1,16,42.2
		c0.7,15.1-3.6,30.4-11.8,42.8c-5.4,8.1-11.1,17.8-18.3,25c-18.3,9.6-35.9,20.5-53.7,30.7c-26.7,15.3-54.5,29.3-84.2,34.2
		c-29.6,5-60.7,0.7-87.8-11.9c-24.9-11.6-51.1-32.9-66.8-56.2c-7.3-21.4-14.4-42.9-21.8-64.3h0c-0.7-2-1.4-4-2.1-6.1
		c14.9,16.4,33.5,29.4,54.2,37.1c17.4,6.6,36.6,9.5,55,5.8c9.2-1.9,18.1-5.4,25.9-10.7c7.8-5.3,14.4-12.4,18.9-20.7
		c4.8-8.9,7-19,6.7-28.9c-0.3-10-3.2-19.7-8-28.4c-9.6-17.2-26.8-29.5-45.6-34.6c-18.2-5-37.9-3.7-55.2,3.5
		c24.9,30.7,39.4,4.1,54.8-2.2c18.3,5.6,34.7,17.9,43.4,34.6c4.4,8.4,6.8,17.7,6.9,27c0.1,9.3-2.3,18.7-6.9,26.7
		c-4.3,7.5-10.6,13.9-17.8,18.5c-7.3,4.7-15.6,7.8-24.1,9.3c-17.1,3.1-35-0.3-51.3-6.8c-3.7-1.5-7.4-3.2-10.9-5
		c4.7,1.3,9.5,2.1,14.4,2.4c15.9,1,32-3.3,45-12c5.1-3.4,9.8-7.5,13.6-12.5c3.8-4.9,6.7-10.6,7.9-16.7c1.3-6.1,0.9-12.6-1.4-18.4
		c-2.3-5.8-6.6-10.8-12.1-13.7c-3.8-1.9-8-2.8-12.2-2.6c-4.2,0.2-8.3,1.6-11.7,3.9c-3.4,2.3-6.2,5.5-7.9,9.2
		c-1.8,3.7-2.5,7.8-2.1,11.8c-0.2-4,0.8-8,2.7-11.5c1.9-3.5,4.7-6.4,8.1-8.4c3.3-2,7.2-3.1,11.1-3.1c3.8,0,7.7,1,11,2.9
		c4.8,2.8,8.4,7.5,10.1,12.7c1.8,5.2,1.8,11,0.4,16.3c-1.4,5.3-4.2,10.3-7.8,14.5c-3.6,4.2-8,7.7-12.9,10.6
		c-12.3,7.4-27,10.5-41,8.8c-16.1-4.1-26.8-5.5-33.7-5.9c-8.4-6.4-16.1-13.8-22.7-21.9c-4.8-5.8-9.5-11.6-13.9-17.7
		c-10-27-21.1-53.7-34.3-79.4c-23.8-46.3-54.8-88.8-91.2-126c-36.3,37.3-67.3,79.8-91,126.2c-13.2,25.7-24.2,52.4-34.2,79.4
		c-4.4,6.1-9.2,11.9-13.9,17.7c-6.7,8.1-14.3,15.5-22.7,21.9c-6.9,0.4-17.5,1.7-33.7,5.9c-14,1.7-28.7-1.4-41-8.8
		c-4.8-2.9-9.3-6.4-12.9-10.6c-3.6-4.2-6.4-9.1-7.8-14.4c-1.4-5.3-1.4-11.1,0.4-16.3c1.8-5.2,5.3-9.9,10.1-12.7
		c3.3-1.9,7.1-2.9,11-2.9c3.8,0,7.7,1.1,11.1,3.1c3.4,2,6.2,4.9,8.1,8.4c1.9,3.5,2.8,7.5,2.7,11.5c0.4-4-0.4-8.1-2.1-11.8
		c-1.8-3.7-4.5-6.9-8-9.2c-3.4-2.3-7.5-3.7-11.7-3.9c-4.2-0.2-8.4,0.7-12.2,2.6c-5.5,2.9-9.8,7.9-12.1,13.7
		c-2.3,5.8-2.7,12.3-1.4,18.4c1.3,6.1,4.1,11.8,8,16.7c3.8,4.9,8.5,9,13.6,12.4c13.1,8.7,29.1,13.1,45,12c4.8-0.3,9.7-1.2,14.4-2.4
		c-3.6,1.9-7.2,3.5-10.9,5c-16.3,6.6-34.2,9.9-51.3,6.9c-8.6-1.5-16.9-4.6-24.1-9.2c-7.3-4.7-13.6-11-17.9-18.5
		c-4.6-8-7-17.4-6.9-26.7c0-9.3,2.5-18.7,6.8-27.1c8.7-16.7,25.1-29.1,43.4-34.7c15.4,6.3,29.9,32.8,54.8,2.1
		c-17.2-7.2-37-8.5-55.2-3.5c-18.8,5.2-35.9,17.4-45.5,34.7c-4.8,8.6-7.6,18.4-7.9,28.4c-0.3,10,1.9,20,6.7,28.9
		c4.5,8.3,11.1,15.3,18.9,20.6c7.8,5.3,16.7,8.8,25.9,10.7c18.4,3.7,37.6,0.7,55-5.9c20.7-7.8,39.3-20.8,54.1-37.2
		c-0.7,2-1.4,4-2.1,6.1h0c-7.4,21.4-14.4,42.9-21.7,64.3c-15.7,23.3-41.8,44.6-66.7,56.3c-27,12.7-58.1,17-87.8,12
		c-29.7-4.9-57.6-18.9-84.3-34.1c-17.8-10.2-35.4-21.1-53.8-30.7c-7.2-7.2-13-16.9-18.3-24.9c-8.3-12.4-12.6-27.7-11.9-42.8
		c0.7-15.1,6.3-30.2,16-42.2c9.6-12,23.3-21,38.4-25c8.9-2.4,14-3.7,23.2-2.7c-9.1-1.5-14.3-0.6-23.5,1.4
		c-15.6,3.4-30.2,11.8-40.9,23.9c-10.8,12.1-17.6,27.8-19.2,44.2c-1.5,16.4,2.3,33.3,10.8,47.7c1.7,2.9,3.8,5.5,6,8l-71.1-47.6
		l67.1,49.1c-1.5-0.6-3-1.3-4.6-1.9c-18.2-7.3-38.3-12.2-57.7-8.5c-9.7,1.9-19.1,6-26.6,12.4c-7.5,6.5-13,15.3-14.7,25
		c-1.2,6.8-0.6,13.8,1.8,20.2c0.3,0.9,0.7,1.9,1.2,2.8c0.5,3.6,2.4,12.9,7.8,17.4c6.8,5.8,15.3,6.5,20.5,0.9
		c5.3-5.6,5.8-15.4,0.8-19.4c-5-4-11.7-1.4-13.1,3.1c-1.2,3.7,2.4,10.3-3.5,11c-5.9,0.7-12.7-14.6-12.7-14.6l0,0c0,0,0,0.1,0,0.2
		c-0.2-0.5-0.4-1-0.6-1.6c-2.2-6.4-2.7-13.3-1.4-19.9c1.9-9.4,7.4-18,14.8-24.1c7.4-6.1,16.6-9.9,26-11.5
		c18.9-3.3,38.3,2.1,56.2,9.5c28.2,11.8,53.9,29.1,80.4,45c26.5,15.9,54.6,30.7,85.6,36.6c31,5.8,63.7,2,92.7-10.8
		c25.6-11.4,42.9-27.4,58.1-49.7c-4.1,11.7-8.2,23.3-12.6,34.9c-12.5,33.1-26.9,65.6-44.7,96c-2.6,3.9-5.2,7.8-7.8,11.7
		c-23.9,34.6-52.7,66.1-87.2,89.8c-30.5,21-65.9,36.1-102.5,37.6c-10.5,0.4-21-0.2-31.3-2.1l0,0l0,0c-0.3,0-0.6-0.1-0.9-0.2
		c-7.4-1.4-14.7-3.4-21.7-6.1c0,0,0,0,0,0c-17.1-6.5-32.8-17-44.9-30.8c-12.5-14.3-21-32.3-23.2-51.2c-2.2-18.9,1.9-38.7,12.3-54.7
		c10.4-16,27.3-28,46-31.8c14-2.8,29.1-1,42.1,5.3c3.8,2.3,7.4,5.1,10.7,8.2c3.7,3.5,6.9,7.5,9.6,11.9c4,12.7,10,35.8,3.1,43.9
		c-9.7,11.4-15.7-8-23.5-11.8c-9.6-4.7-23.5,4.8-24.1,22.5c-0.6,17.7,16.5,33.6,33.6,32.3c17.1-1.3,28-20.7,28.2-45.2
		c0-5.7-1-11.4-2.7-16.9c-2.3-14.8-9.9-28.7-21.4-38.6c-10.4-8.9-23.6-14.2-37.3-15.6c0,0-0.1,0-0.1,0c-15.4-2.3-31.6,1.2-45,9.4
		c-13.3,8.2-23.8,20.8-29.9,35.3h0c-1.1,2.7-2.1,5.4-2.9,8.1c-4.2,12.2-5.8,25.3-4.5,38.2c2,20.2,10.6,39.5,23.6,55.1
		c1.3,1.5,2.6,3,4,4.5c-11.5-7.9-22-17-31-27c-10.2-11.4-18.8-24.2-24.7-38.4c-5.9-14.1-6.2-12.9-5.3-28.3c7.1-7,16.1-30.4,1.4-39.5
		c-2.7,7.3-4.5,14.9-5.3,22.7c-1.6,15.5,0.8,31.4,6.2,46.2c5.4,14.8,13.6,28.5,23.6,40.7c11.6,14.3,27,25.8,44.1,34.8
		c-26.9-9.7-51.7-27.9-70.8-49.2c-10.2-11.4-18.8-24.2-24.7-38.3c-5.9-14.1-9-29.5-8.1-44.9c19.7-4.7,21.8-30.2,11.6-39.5
		c-2.7,7.3-11.9,31.6-12.7,39.4c-1.6,15.5,0.8,31.4,6.1,46.2c5.4,14.8,13.6,28.5,23.6,40.7c22.3,27.3,55.5,45.4,90.4,54.4
		c6,3.7,12.3,6.9,18.8,9.5c18.1,7.3,37.8,10.6,57.3,10.1c39-0.9,76.6-15.8,108.8-37.2c36.4-24,67-56,92.4-91.2
		c6.9-9.5,13.4-19.2,19.6-29.2c-2,42.2-13.6,84.2-34,121.5c-24.2,44.3-60.8,82-104.6,107.7c-11.2,6.5-23.3,12.5-36,12.6
		c-6.4,0.1-12.8-1.3-18.3-4.5c-5.5-3.2-10-8.3-11.9-14.4c-2.1-6.4-1.1-13.7,2.4-19.5c3.8-3.7,13.2-12.2,16.8-9.5
		c4.5,3.5-2.1,9.6-3.1,14.4c-1.3,5.9,2.8,11.9,9.1,9.6c6.3-2.3,11.2-13.9,10-22.8c-1.2-9-8.6-12-17.3-8.4
		c-6,2.5-11.8,10.2-14.8,14.8c-4.6,6-6.2,14.3-4.1,21.7l0,0c1.9,6.4,6.5,11.9,12.2,15.5c5.7,3.5,12.5,5.2,19.2,5.2
		c13.4,0.1,26.1-5.6,37.6-12c45-24.9,83.2-62.3,109.1-107c24.9-43,38.4-92.7,38.7-142.7c12.6-21.7,23.9-44.1,34.4-66.8
		c18.3-39.3,34.4-79.3,51.8-118.5c17.3-39,35.9-77.3,58.7-112.6C838.6,153.5,852.5,135,867.6,117.5z"/>
	<path d="M1160.4,680.5c8.2,9.3,28.9,12.8,58.6-15.1c-41.9-13.2-63.4-4.6-60.7,8.6c14.7-8.3,25.4-4.2,32.1,0.8
		C1182.6,677.3,1172.2,670.1,1160.4,680.5z"/>
	<path d="M575.4,680.8c-8.2,9.3-28.8,12.8-58.6-15c41.9-13.2,63.4-4.7,60.7,8.6c-14.7-8.3-25.4-4.2-32.1,0.8
		C553.2,677.7,563.6,670.5,575.4,680.8z"/>
	<polygon points="1219,665.4 1219,665.4 1219,665.4 	"/>
	<polygon points="516.8,665.8 516.8,665.8 516.8,665.8 	"/>
	<path d="M1146.1,690.6c9.8,13.7,6.9,24.8,2.7,32c-3.4-7.6,2.7-18.6-8.9-29.3c-8.4,9.1-9.6,30.1,21.2,56.7v0
		C1169.8,706.9,1159,686.4,1146.1,690.6z"/>
	<path d="M589.7,690.9c-9.8,13.7-6.9,24.8-2.6,32c3.3-7.6-2.8-18.6,8.8-29.3c8.4,9.1,9.7,30-21.2,56.7l0,0
		C566,707.3,576.9,686.8,589.7,690.9z"/>
</g>
</svg>
