<?xml version="1.0" encoding="utf-8"?>
<!-- Generator: Adobe Illustrator 26.0.1, SVG Export Plug-In . SVG Version: 6.00 Build 0)  -->
<svg version="1.1" id="Layer_1" xmlns="http://www.w3.org/2000/svg" xmlns:xlink="http://www.w3.org/1999/xlink" x="0px" y="0px"
	 viewBox="0 0 1734.9 1206.7" style="enable-background:new 0 0 1734.9 1206.7;" xml:space="preserve">
<style type="text/css">
	.st0{display:none;}
</style>
<g>
	<path d="M916.2,784.8c5.8,6.9,18-0.7,26.4-27.7l0,0c-25,3.9-30.7,16-28.9,24c9.6-1.8,9.6-10.2,13.8-13.2
		C927.5,773.5,925.8,780.7,916.2,784.8z"/>
	<path d="M810.7,798.8c3.1-8.4-9.6-15.2-37.2-8.9l0,0c15.9,19.7,29.2,18.6,35.3,13c-6.4-7.4-13.6-3.3-18.3-5.3
		C795.2,794.7,802.3,792.6,810.7,798.8z"/>
	<path d="M875.5,883.2c-8.8,1.6-8.4,15.9,10.9,36.7l0,0c9.1-23.6,1.5-34.6-6.4-37.1c-3.2,9.2,4,13.4,4.5,18.5
		C879.7,898.7,874.4,893.6,875.5,883.2z"/>
	<path d="M924.2,798.7c-3.1-8.4,9.6-15.2,37.2-9l0,0c-15.9,19.7-29.2,18.6-35.3,13.1c6.4-7.4,13.6-3.3,18.3-5.4
		C939.7,794.6,932.6,792.5,924.2,798.7z"/>
	<path d="M818.7,784.9c-5.8,6.9-18-0.7-26.4-27.7l0,0c25,3.9,30.7,16,28.9,24c-9.6-1.8-9.7-10.1-13.8-13.2
		C807.4,773.6,809.1,780.7,818.7,784.9z"/>
	<path class="st0" d="M859.5,883.2c8.8,1.6,8.4,15.9-10.8,36.7l0,0c-9.2-23.6-1.5-34.6,6.3-37.1c3.2,9.2-4,13.4-4.5,18.5
		C855.3,898.7,860.7,893.6,859.5,883.2z"/>
	<path d="M867.4,760.5c7.3,20.5,19,23.6,26.3,20.8c-3.1-9-11.3-7.8-14.8-11.3c5.4-1,12.7-0.4,18.1,8.3c5.9-6.6-2.8-17-29.6-21.1
		c-26.8,4.1-35.5,14.5-29.6,21.1c5.4-8.6,12.6-9.2,18.1-8.3c-3.5,3.5-11.7,2.3-14.8,11.3C848.4,784.2,860.2,781,867.4,760.5z"/>
	<path d="M921,853.1c-21.4-4-30,4.7-31.1,12.4c9.3,1.9,12.4-5.9,17.2-7.1c-1.9,5.2-6,11.2-16.2,11.5c2.7,8.4,16.1,6.1,33-15.1
		c9.9-25.2,5.2-38-3.5-36.2c4.8,8.9,1.7,15.6-1.9,19.8c-1.3-4.8,3.9-11.3-2.4-18.4C910,824.9,906.8,836.6,921,853.1z"/>
	<path d="M814,853.2c14.1-16.5,10.9-28.3,4.8-33.2c-6.3,7.2-1.1,13.6-2.4,18.4c-3.5-4.2-6.7-10.8-1.9-19.8
		c-8.6-1.8-13.3,10.9-3.4,36.2c16.9,21.2,30.3,23.5,33.1,15.1c-10.1-0.3-14.3-6.3-16.2-11.5c4.8,1.3,7.8,9,17.2,7.1
		C844,857.8,835.4,849.2,814,853.2z"/>
	<path d="M1012.3,492.4c2.9,4.4,10.5,6.3,21.9-6.4c-15.3-6.6-23.4-2.8-22.6,3.4c5.5-3.7,9.4-1.7,11.9,0.7
		C1020.6,491.2,1016.9,487.7,1012.3,492.4z"/>
	<path d="M509.4,861.8c2.4-4.7,0.2-12.2-16.5-15.7c1.9,16.6,9.3,21.7,14.2,17.8c-6-2.9-6.2-7.3-5.3-10.6
		C504.2,855.2,503,860.2,509.4,861.8z"/>
	<path d="M1225.6,861.3c-2.4-4.7-0.2-12.2,16.5-15.8c-1.9,16.6-9.2,21.7-14.2,17.9c6-3,6.2-7.3,5.3-10.6
		C1230.8,854.8,1232,859.8,1225.6,861.3z"/>
	<path d="M722.2,492.6c-2.9,4.4-10.5,6.3-21.9-6.4c15.3-6.6,23.4-2.9,22.6,3.3c-5.6-3.7-9.4-1.7-11.9,0.7
		C713.9,491.4,717.7,487.9,722.2,492.6z"/>
	<path d="M651.6,1113.9"/>
	<path d="M654.6,1112.9"/>
	<polygon points="1034.2,486 1034.2,486 1034.2,486 	"/>
	<polygon points="492.9,846 492.9,846 492.9,846 	"/>
	<polygon points="1242.1,845.6 1242.1,845.6 1242.1,845.6 	"/>
	<polygon points="700.3,486.2 700.3,486.2 700.3,486.2 	"/>
	<path d="M1191.3,635.1c-12.6-1.3-20.1,2.8-21.1,10c1.8-0.4,3.6-0.6,5.3-0.8c-1,1.4-2.1,2.7-3.3,4.1
		C1178.9,651.1,1186.2,646.6,1191.3,635.1z"/>
	<path d="M543.4,635.4c5.2,11.6,12.5,16.1,19.2,13.3c-1.2-1.4-2.4-2.8-3.3-4.1c1.7,0.2,3.4,0.4,5.3,0.8
		C563.5,638.2,556,634.1,543.4,635.4z"/>
	<path d="M1174.7,622.1c12.6-4.7,24-22,7-55.9h0c-29.4,33.3-28.9,54.7-14.3,56c-2.8-15.3,5.4-23.6,13-28.2
		C1180,601.7,1168.6,608.8,1174.7,622.1z"/>
	<path d="M540.5,656.3c-10.3-8.6-31-9.8-51.9,21.9v0c43.6,8.8,61.8-2.4,55.6-15.6c-11.8,10.1-23.1,7.1-30.9,2.8
		C520.1,662,532,668.2,540.5,656.3z"/>
	<path d="M1194.2,655.9c10.3-8.6,31-9.9,51.9,21.8v0c-43.6,8.9-61.8-2.3-55.6-15.5c11.8,10.1,23.1,7.1,30.9,2.8
		C1214.6,661.6,1202.8,667.8,1194.2,655.9z"/>
	<path d="M560,622.5c-12.6-4.7-24.1-21.9-7.1-55.9h0c29.5,33.3,28.9,54.7,14.4,55.9c2.8-15.3-5.4-23.5-13.1-28.1
		C554.7,602,566,609.2,560,622.5z"/>
	<path d="M1075.3,294.3c-6.9-6.8-22.9-8.6-43.4,14.3l0,0c32.8,8.4,48.5,0.7,45.4-9.4c-10.5,7.1-18.9,4.4-24.5,0.9
		C1058.7,297.7,1067.1,302.9,1075.3,294.3z"/>
	<path d="M306.3,906.3c-2.5,9.4,4,24.1,34.1,30.4l0,0c-9.2-32.6-23.6-42.4-30.9-34.6c11.4,5.6,13.3,14.2,13,20.8
		C317.6,919,317.9,909.1,306.3,906.3z"/>
	<path d="M1428.7,905.6c2.5,9.4-3.9,24.2-34.1,30.4l0,0c9.1-32.6,23.6-42.4,30.8-34.7c-11.4,5.6-13.3,14.2-12.9,20.8
		C1417.5,918.3,1417.2,908.4,1428.7,905.6z"/>
	<path d="M659,294.6c6.9-6.9,22.9-8.7,43.4,14.3l0,0c-32.8,8.4-48.5,0.8-45.4-9.4c10.5,7.1,18.9,4.4,24.5,0.8
		C675.6,298,667.2,303.1,659,294.6z"/>
	<path d="M1131.8,318.8c6.4-7.4,7.1-23.4-17.1-42.3l0,0c-6.2,33.3,2.4,48.5,12.4,44.7c-7.8-10-5.6-18.6-2.4-24.4
		C1127.3,302.4,1122.7,311.2,1131.8,318.8z"/>
	<path d="M299.2,845.1c-9.6-1.8-23.8,5.5-28.1,36l0,0c32-11.3,40.8-26.4,32.5-33.1c-4.8,11.8-13.3,14.2-19.9,14.3
		C287.3,857.2,297.2,856.8,299.2,845.1z"/>
	<path d="M1435.7,844.4c9.6-1.8,23.8,5.5,28.1,36l0,0c-32-11.2-40.8-26.3-32.6-33c4.8,11.7,13.3,14.2,19.9,14.3
		C1447.7,856.5,1437.8,856.1,1435.7,844.4z"/>
	<path d="M602.5,319.1c-6.4-7.4-7.2-23.4,17.1-42.4l0,0c6.3,33.3-2.4,48.5-12.3,44.7c7.8-10.1,5.6-18.6,2.4-24.4
		C607,302.7,611.6,311.5,602.5,319.1z"/>
	<path d="M715,734.4c-7.2-0.6-14.4-1.5-21.6-2.7c-33.2-5.7-65.4-18.6-93-38v0c-16.9-11.8-32.2-25.9-47.8-39.9l0,0
		c-15.6-14-31.6-28-49.6-39.3c-18-11.3-38.4-19.8-59.9-21.9c-13.8-1.3-28,0.3-41,5.1c-1.2-0.5-2.3-1-3.5-1.4
		c-16.5-6-35.4-5.2-51.3,2.4c-9.3,4.4-17.4,11-24.4,18.3c-7.2,7.4-13.4,15.6-19.5,23.8c-6.1,8.2-12.2,16.4-19,23.9c0,0,0,0,0,0
		c-6.8,7.4-14.4,14.1-23.2,18.9c-16.2,8.9-36.3,10.7-53.9,4.8c-13.8-4.6-26-13.8-34.4-25.7c4.7,5.6,10.6,11,22,12.4
		c1.1-15.8-14.7-38.6-68.2-43.2l0,0c26.4,51.4,54.3,64.7,64.1,50.7c-21.3-7-27.4-20.7-29-31.4c4,2.2,6.8,6.3,10.3,10.5
		c8.3,12.5,20.8,22.3,35,27.2c17.7,6.1,38,4.5,54.7-4.4c9-4.8,16.8-11.5,23.7-19c7-7.5,13.2-15.7,19.4-23.9
		c6.2-8.1,12.5-16.2,19.6-23.4c7-7.1,15-13.4,23.9-17.6c15.3-7.1,33.5-7.7,49.1-1.8c0.2,0.1,0.3,0.1,0.5,0.2
		c-5.8,2.5-11.3,5.7-16.3,9.6c0,0,0,0,0,0c-8.7,6.8-15.8,15.7-20.2,25.9c-4.3,10.2-5.6,21.8-3.2,32.7c2.4,10.9,8.7,21,17.7,27.7
		c9.1,6.7,20.8,9.6,31.9,7.5c7.4-1.4,14.3-5.1,19.8-10.1c5.5-5.1,9.6-11.5,12-18.5l0,0c4.9-14,3.1-29.7-3.1-42.9c0,0,0,0,0,0
		c-5.7-12.2-15.3-22.6-26.8-29.5c10.5-2.9,21.8-3.7,32.7-2.6c0,0,0,0,0,0c20.1,2.1,39.4,10.5,56.7,21.5c17.3,11.1,32.8,24.9,48.2,39
		c15.4,14.1,30.8,28.6,48.2,41.1l0,0c28.5,20.4,61.7,34.1,96.2,40.5c13.8,2.5,27.9,3.9,42,4c-7.2-12.1-15.4-23.6-24.5-34.3
		c-22.8-26.7-51.3-48.6-83.2-63c0,0,0,0,0,0c-19.4-8.8-39.7-14.9-59.7-21.1c-19.9-6.3-39.7-12.7-57.9-22.1
		c-18.2-9.4-35.1-21.9-47-38.3c0,0,0,0,0,0c-6.4-8.9-11.4-19-14.2-29.6c11.8,6.5,25.5,9.6,39,8.4c0,0,0,0,0,0
		c14.6-1.2,29-7.6,38.7-18.8c0,0,0,0,0,0c4.8-5.6,8.4-12.4,10-19.7c1.6-7.3,1.3-15.1-1.1-22.2c-3.7-10.6-12.1-19.3-22.4-23.8
		c-10.3-4.5-22.1-4.8-32.8-1.4c-10.6,3.4-20,10.3-26.7,19.2c-6.7,8.9-10.8,19.5-12.3,30.4c0,0,0,0,0,0c-0.9,6.3-0.9,12.7-0.2,19
		c-0.1-0.1-0.3-0.2-0.4-0.3c-13-10.6-21.6-26.6-23.1-43.4c-0.9-9.9,0.6-19.9,3.2-29.5c2.7-9.8,6.5-19.3,10.5-28.7
		c4-9.4,8-18.9,10.9-28.7c3-9.7,4.9-19.9,4.5-30c-0.7-18.8-9.5-37.2-23.6-49.5c-11.4-9.9-26.1-15.7-41.1-16.7
		c-5.3-0.9-10.3-1.3-14.2-3.6c10.1-4,25-5.6,41.7,9.3c7.2-15.4-18.3-33-76-30.1l0,0c30.8,43.9,58.5,46.2,71.6,37.3
		c-6.9-9.2-14.6-11.6-21.7-12.8c14.5,1.3,28.6,7.3,39.4,16.9c13.9,12.3,22.4,30.6,22.8,49.1c0.3,10-1.7,20-4.8,29.6c0,0,0,0,0,0
		c-3.1,9.7-7.1,19.1-11.2,28.5c-4.1,9.4-8,18.9-10.9,28.8c-2.8,9.8-4.4,20.1-3.6,30.3c1.4,17.5,10.1,34.3,23.6,45.5
		c1,0.8,2,1.6,3,2.3c2.3,13.7,8.1,26.8,16.1,38c12.6,17.6,30.1,30.9,49,40.8c18.8,9.9,38.9,16.8,58.8,23.2c0,0,0,0,0,0
		c19.9,6.5,39.9,12.7,58.5,21.4h0c30.6,14.2,57.8,35.6,79.5,61.5C706.4,722.6,710.8,728.4,715,734.4z M1019.9,734.2
		c4.1-6,8.5-11.8,13.1-17.3c21.6-25.9,48.8-47.3,79.4-61.6h0c18.6-8.7,38.5-14.9,58.5-21.4l0,0c19.9-6.5,40-13.4,58.8-23.3
		c18.8-10,36.4-23.3,48.9-40.9c8-11.3,13.8-24.4,16.1-38.1c1-0.7,2-1.5,3-2.3c13.5-11.3,22.2-28.1,23.6-45.6
		c0.8-10.3-0.8-20.5-3.6-30.3c-2.8-9.9-6.8-19.4-10.9-28.8c-4.1-9.4-8.2-18.7-11.2-28.4c0,0,0,0,0,0c-3-9.6-5-19.5-4.8-29.6
		c0.4-18.5,8.9-36.8,22.8-49.1c10.8-9.6,24.9-15.6,39.4-16.9c-7.1,1.3-14.9,3.7-21.7,12.8c13.1,8.8,40.8,6.5,71.6-37.4l0,0
		c-57.7-2.8-83.2,14.7-76,30.1c16.7-15,31.6-13.3,41.7-9.4c-3.9,2.4-8.9,2.8-14.2,3.6c-15,0.9-29.7,6.8-41.1,16.7
		c-14.1,12.3-22.9,30.7-23.6,49.5c-0.3,10.2,1.6,20.3,4.5,30c3,9.8,7,19.3,11,28.7c4,9.4,7.8,18.9,10.5,28.7
		c2.6,9.6,4.1,19.7,3.2,29.5c-1.5,16.8-10.1,32.8-23,43.4c-0.1,0.1-0.3,0.2-0.4,0.3c0.7-6.3,0.7-12.6-0.2-19c0,0,0,0,0,0
		c-1.5-10.9-5.7-21.6-12.4-30.4c-6.7-8.9-16.1-15.8-26.7-19.1c-10.7-3.4-22.5-3-32.8,1.5c-10.3,4.5-18.7,13.2-22.4,23.9
		c-2.5,7.1-2.8,14.9-1.1,22.2c1.7,7.3,5.2,14.1,10,19.7c0,0,0,0,0,0c9.7,11.2,24.1,17.5,38.7,18.8l0,0c13.5,1.1,27.2-1.9,39-8.5
		c-2.8,10.6-7.7,20.7-14.1,29.6c0,0,0,0,0,0c-11.9,16.4-28.8,28.9-47,38.3c-18.2,9.4-38,15.9-57.9,22.2
		c-19.9,6.3-40.2,12.4-59.6,21.2l0,0c-31.9,14.5-60.4,36.4-83.2,63.1c-9.1,10.7-17.3,22.2-24.5,34.3c14.1-0.2,28.1-1.5,42-4.1
		c34.5-6.4,67.7-20.1,96.2-40.6l0,0c17.3-12.4,32.7-27,48.1-41.1c15.4-14.1,30.8-28,48.1-39.1c17.3-11.1,36.5-19.5,56.7-21.6
		c0,0,0,0,0,0c10.9-1.1,22.2-0.4,32.7,2.5c-11.6,6.9-21.1,17.3-26.8,29.6c0,0,0,0,0,0c-6.2,13.2-7.9,28.9-3.1,42.9c0,0,0,0,0,0
		c2.5,7,6.6,13.5,12.1,18.5c5.5,5.1,12.4,8.7,19.8,10.1c11.1,2.1,22.8-0.8,31.9-7.5c9-6.7,15.3-16.8,17.7-27.7
		c2.4-10.9,1.1-22.5-3.3-32.7c-4.3-10.2-11.5-19.1-20.2-25.9c0,0,0,0,0,0c-5-3.9-10.5-7.1-16.3-9.6c0.2-0.1,0.3-0.1,0.5-0.2
		c15.7-5.9,33.9-5.4,49.1,1.7c9,4.1,16.9,10.4,24,17.5c7.1,7.2,13.4,15.3,19.6,23.4c6.2,8.1,12.4,16.3,19.4,23.8
		c6.9,7.4,14.8,14.1,23.8,18.9c16.6,8.8,36.9,10.4,54.7,4.3c14.3-4.9,26.7-14.8,35-27.3c3.4-4.2,6.2-8.3,10.2-10.5
		c-1.6,10.7-7.6,24.4-28.9,31.4c9.8,13.9,37.7,0.6,64-50.8l0,0c-53.5,4.8-69.2,27.6-68.1,43.3c11.4-1.4,17.3-6.9,22-12.4
		c-8.4,11.9-20.6,21.1-34.3,25.7c-17.6,5.9-37.7,4.1-53.9-4.8c-8.8-4.8-16.4-11.5-23.2-18.9l0,0c-6.9-7.5-12.9-15.7-19-23.9
		c-6.1-8.2-12.4-16.4-19.5-23.8c-7.1-7.3-15.2-13.9-24.5-18.3c-15.8-7.5-34.7-8.4-51.3-2.3c-1.2,0.4-2.3,0.9-3.5,1.4
		c-13-4.8-27.2-6.4-41-5.1c-21.5,2.1-41.8,10.6-59.9,22c-18,11.3-34,25.3-49.5,39.3l0,0c-15.6,14-30.9,28.2-47.8,40v0
		c-27.6,19.4-59.7,32.3-93,38.1C1034.3,732.7,1027.1,733.6,1019.9,734.2z M1127.7,199.5c-6.5,1.2-13.2,1.4-19.8,0.5
		C1113,200.3,1120.1,200.4,1127.7,199.5z M198,908.3c4.3,5.1,7.8,10.8,10.3,16.9C206,920.7,202.6,914.5,198,908.3z M1526.8,924.4
		c2.5-6.1,6-11.9,10.3-16.9C1532.5,913.7,1529,919.9,1526.8,924.4z M626.3,200.3c-6.6,0.9-13.3,0.7-19.8-0.5
		C614.1,200.7,621.2,200.6,626.3,200.3z M1094.2,195.4c4.7,1.3,9.6,2.1,14.5,2.3c-2.7,0.6-4.9,1-6.3,1.3c-2.6-0.6-5.1-1.3-7.6-2.3
		c-3.4-1.3-6.7-2.8-9.8-4.7C1088,193.4,1091,194.6,1094.2,195.4z M211.2,939.4c-1.2-4.7-3-9.3-5.3-13.7c1.8,2,3.3,3.7,4.3,4.9
		c0.8,2.5,1.4,5.1,1.8,7.7c0.6,3.6,0.9,7.2,0.8,10.8C212.6,945.8,212.1,942.5,211.2,939.4z M1522.2,948.3c0-3.6,0.2-7.2,0.8-10.8
		c0.4-2.6,1.1-5.2,1.8-7.7c1-1.1,2.4-2.8,4.3-4.9c-2.3,4.3-4,8.9-5.3,13.7C1523,941.8,1522.5,945,1522.2,948.3z M649.2,192.3
		c-3.1,1.9-6.4,3.4-9.8,4.7c-2.5,0.9-5,1.7-7.6,2.3c-1.5-0.3-3.7-0.7-6.3-1.3c4.9-0.2,9.8-1,14.5-2.3
		C643.1,194.8,646.2,193.7,649.2,192.3z M1053.1,157.3c0.4,1,0.8,2,1.2,3c-4.2-9.4-6.2-19.7-5.9-29.9c0.2-7.4,1.7-14.8,4.2-21.8
		C1047.5,124.4,1047.5,141.8,1053.1,157.3z M198.8,994c0.7-0.8,1.4-1.7,2-2.5c-6,8.3-14,15.2-23,20.1c-6.6,3.5-13.7,5.9-21,7.3
		C173,1015.3,188.1,1006.6,198.8,994z M1578.4,1018c-7.3-1.3-14.4-3.7-21-7.3c-9-4.8-17-11.7-23-20c0.7,0.9,1.3,1.7,2,2.5
		C1547,1005.8,1562.1,1014.5,1578.4,1018z M681.5,108.8c2.5,7,4,14.4,4.2,21.8c0.3,10.2-1.7,20.6-5.8,29.9c0.4-1,0.8-2,1.2-3
		C686.6,142,686.6,124.6,681.5,108.8z M867.3,548.2c4.7-4.6,10.8-7.8,17.3-9.4c6.6-1.6,13.6-1.4,20.2,0.1c6.6,1.6,13,4.6,18.6,8.6
		c5.2,3.6,9.7,8.1,13.5,13.1c-1.8,11.7-6.7,23-15.1,31.1c-5.5,5.4-12.4,9.3-19.9,11.1c-7.4,1.8-15.4,1.4-22.5-1.3h0
		c-4.6-1.7-8.8-4.4-12.2-7.8c-3.5,3.4-7.7,6.1-12.2,7.8l0,0c-7.1,2.7-15,3.1-22.4,1.3c-7.4-1.8-14.4-5.7-19.9-11
		c-8.4-8.1-13.3-19.4-15.1-31.1c3.8-5,8.3-9.5,13.5-13.2c5.6-4,11.9-7,18.6-8.6c6.6-1.6,13.6-1.7,20.2-0.1
		C856.5,540.3,862.6,543.5,867.3,548.2z M1105,959.2c1.6,6.4,1.4,13.3-0.5,19.7c-1.9,6.5-5.5,12.5-10.2,17.5
		c-4.7,5-10.4,8.9-16.7,11.8c-5.7,2.6-11.9,4.3-18.1,5.1c-9.3-7.4-16.6-17.3-19.4-28.6c-1.9-7.5-1.8-15.4,0.3-22.7
		c2.2-7.3,6.5-14,12.4-18.8l0,0c3.8-3.1,8.2-5.4,12.9-6.7c-1.2-4.7-1.4-9.7-0.7-14.5v0c1.2-7.5,4.8-14.6,10.1-20.1
		c5.2-5.6,12.1-9.6,19.5-11.7c11.2-3.2,23.4-1.9,34.5,2.5c2.4,5.8,4.1,12,4.6,18.3c0.6,6.9,0.1,13.8-1.9,20.4
		c-2,6.5-5.3,12.7-10,17.6C1117.2,953.7,1111.3,957.4,1105,959.2z M630.2,959.5c-6.4-1.8-12.2-5.5-16.8-10.3c-4.7-4.9-8-11-10-17.6
		c-2-6.5-2.5-13.5-1.9-20.4c0.6-6.3,2.2-12.4,4.6-18.3c11-4.3,23.3-5.7,34.5-2.5c7.4,2.1,14.3,6.1,19.5,11.7
		c5.2,5.5,8.9,12.6,10.1,20.1v0c0.8,4.8,0.6,9.8-0.7,14.5c4.7,1.3,9.1,3.6,12.9,6.7l0,0c5.9,4.8,10.2,11.5,12.4,18.8
		c2.2,7.3,2.2,15.3,0.4,22.7c-2.8,11.3-10.1,21.2-19.4,28.6c-6.3-0.8-12.4-2.5-18.1-5.1c-6.3-2.9-12-6.8-16.7-11.8
		c-4.7-5-8.3-11-10.2-17.4C628.8,972.8,628.5,965.9,630.2,959.5z M1248.8,541.1L1248.8,541.1c-13.7-1.3-27.2-7.4-36-17.8h0
		c-4.4-5.2-7.5-11.4-9-18c0,0,0,0,0,0c-1.4-6.6-1.1-13.5,1.2-19.8c3.3-9.3,11-17,20.1-20.9c9.1-3.9,19.8-4.1,29.3-1
		c9.5,3.1,17.9,9.5,23.9,17.5c6,8.1,9.7,17.9,11,27.9c1,7.6,0.6,15.4-0.9,23C1276.7,539.2,1262.5,542.5,1248.8,541.1z M433.3,632.6
		L433.3,632.6c5.7,12.6,7.2,27.3,2.6,40l0,0c-2.3,6.4-6.1,12.2-11.1,16.8c0,0,0,0,0,0c-5,4.5-11.2,7.7-17.7,8.9
		c-9.7,1.8-20.2-1-28.2-6.9c-8-6-13.5-15.1-15.5-24.9c-2.1-9.8-0.7-20.2,3.2-29.5c4-9.2,10.6-17.3,18.7-23.5
		c6.1-4.7,13-8.2,20.4-10.7C417.7,609.5,427.6,620.1,433.3,632.6z M1329.1,602.3c7.3,2.4,14.3,6,20.4,10.7
		c8,6.2,14.7,14.2,18.7,23.4c4,9.2,5.3,19.7,3.3,29.5c-2,9.8-7.5,18.9-15.5,24.9c-7.9,6-18.4,8.7-28.2,7c-6.5-1.2-12.8-4.4-17.8-8.9
		c0,0,0,0,0,0c-5-4.5-8.8-10.4-11.1-16.7v0c-4.7-12.7-3.2-27.5,2.5-40v0C1307.1,619.6,1317,608.9,1329.1,602.3z M446.1,532.5
		c-1.5-7.6-2-15.3-0.9-23c1.3-10,5-19.8,11-27.9c6-8.1,14.4-14.5,23.9-17.6c9.5-3.1,20.2-2.9,29.3,1c9.1,3.9,16.8,11.6,20.1,20.9
		c2.3,6.3,2.6,13.2,1.2,19.8c0,0,0,0,0,0c-1.4,6.6-4.6,12.8-8.9,18l0,0c-8.7,10.4-22.2,16.5-35.9,17.8l0,0
		C472.1,542.9,457.9,539.7,446.1,532.5z M905.9,800.1c3-22.2,8.4-44,16.1-65c5.8-15.9,13-31.4,19.6-47.4l0,0
		c6.5-15.9,12.4-32.2,15.6-49.4c3.2-17.2,3.5-35.2-1.2-52.3c-3-10.9-8.1-21.4-15.3-30.1c0-0.6,0.1-1.1,0.1-1.7c0,0,0,0,0,0
		c0.5-14.7-3.2-29.1-8.8-42.4c-8-19.2-19.7-36.5-29-54.9c-9.3-18.4-16.4-38.6-14.4-58.9c1.1-10.8,4.9-21.3,10.7-30.5
		c5.9-9.2,13.8-17,23.3-22.5c9.4-5.5,20.2-8.6,31.1-9.3c7.6-0.4,15.2,0.3,22.6,2.3c-5,2-11.4,2.4-19.3-2.2
		c-2.4,10.3,13.7,16.9,45.9,6.4l0,0c-21.9-21.6-37.7-18.7-44.2-11.4c8.7,8,16.8,2.3,22.7,4.3c-1.4,1.1-3.1,2.1-5,2.9
		c-7.4-2.1-15.1-2.9-22.8-2.6c-11,0.5-21.9,3.5-31.4,9c-9.6,5.5-17.7,13.3-23.8,22.6c-6.1,9.2-10,19.9-11.2,30.9c0,0,0,0,0,0
		c-2.3,20.7,4.7,41.4,13.9,60c9.2,18.6,20.6,36,28.3,55c5.1,12.6,8.6,26.1,8.2,39.6c-3.3-3.6-7-6.8-11-9.6h0
		c-6.2-4.3-13.2-7.5-20.6-9.2c-7.4-1.7-15.2-1.7-22.7,0.1c-5.8,1.5-11.4,4.1-16.1,7.8c-4.7-3.7-10.3-6.4-16.1-7.8
		c-7.4-1.8-15.3-1.8-22.7-0.1c-7.4,1.7-14.4,4.9-20.6,9.2h0c-4,2.8-7.7,6-11,9.6c-0.4-13.4,3.1-26.9,8.2-39.6
		c7.6-19,19.1-36.4,28.2-55c9.2-18.6,16.1-39.3,13.8-60c0,0,0,0,0,0c-1.2-11-5.2-21.7-11.3-30.9c-6.1-9.2-14.2-17.1-23.8-22.5
		c-9.6-5.5-20.5-8.5-31.4-9c-7.7-0.4-15.4,0.5-22.8,2.6c-1.9-0.8-3.5-1.8-5-2.9c5.9-1.9,14,3.8,22.7-4.3
		c-6.5-7.3-22.3-10.1-44.2,11.5l0,0c32.2,10.5,48.4,3.9,45.9-6.5c-7.9,4.6-14.3,4.2-19.3,2.2c7.3-2,15-2.8,22.6-2.3
		c10.9,0.6,21.7,3.7,31.1,9.2c9.4,5.5,17.4,13.3,23.3,22.5c5.9,9.2,9.7,19.7,10.8,30.4c2.1,20.3-5.1,40.6-14.3,59
		c-9.3,18.4-20.9,35.7-28.9,54.9c-5.6,13.4-9.3,27.8-8.8,42.4c0,0,0,0,0,0c0,0.6,0.1,1.1,0.1,1.7c-7.2,8.8-12.3,19.2-15.3,30.2
		c-4.6,17.1-4.4,35.1-1.1,52.3c3.2,17.1,9.1,33.5,15.7,49.3l0,0c6.6,15.9,13.8,31.5,19.6,47.4c7.8,21,13.1,42.8,16.2,65
		c-20.7,8.4-42.3,14.7-64.4,18.5c-16.7,2.9-33.7,4.5-50.8,6.8h0c-17,2.3-34.1,5.3-50.6,11.1c-16.5,5.8-32.2,14.6-44.7,27.2
		c-8,8-14.4,17.7-18.4,28.3c-0.5,0.3-1,0.5-1.5,0.8c0,0,0,0,0,0c-13,6.9-23.6,17.3-32.3,28.9c-12.6,16.6-21.8,35.3-33.1,52.5
		c-11.3,17.2-25.2,33.5-43.9,41.9c-9.9,4.5-20.9,6.4-31.7,5.9c-10.9-0.5-21.7-3.5-31.1-8.9c-9.5-5.4-17.6-13.2-23.6-22.3
		c-4.2-6.3-7.3-13.4-9.3-20.7c4.2,3.3,7.8,8.7,7.8,17.8c10.2-3.1,7.8-20.4-17.4-43h0c-7.7,29.8,2.6,42,12.2,44
		c2.6-11.6-6.4-15.7-7.7-21.8c1.6,0.7,3.4,1.6,5,2.9c1.9,7.4,5,14.5,9.1,21c5.9,9.2,14,17.2,23.5,22.7c9.5,5.6,20.4,8.7,31.4,9.3
		c11,0.6,22.2-1.3,32.4-5.7c0,0,0,0,0,0c19.1-8.4,33.5-24.8,45-42.1c11.5-17.3,20.9-35.8,33.5-52c8.4-10.7,18.3-20.5,30.1-26.9
		c-1.4,4.6-2.4,9.4-2.8,14.3v0c-0.6,7.5,0.1,15.2,2.3,22.5c2.3,7.3,6.1,14.1,11.5,19.6c4.2,4.3,9.2,7.8,14.8,10
		c-0.9,6-0.4,12.1,1.3,17.8c2.1,7.4,6.1,14.1,11.2,19.7c5.2,5.6,11.5,10,18.3,13.2l0,0c4.4,2.1,9,3.6,13.8,4.7
		c-11.5,7-24.8,10.8-38.3,12.7c-20.3,2.9-41.1,1.7-61.8,3.1c-20.7,1.4-42.1,5.7-58.9,18c0,0,0,0,0,0c-8.9,6.6-16.1,15.3-21.1,25.2
		c-5,9.9-7.7,20.9-7.6,31.9c0.1,11,2.9,22,8,31.7c3.5,6.8,8.1,13.1,13.6,18.4c0.3,2,0.2,4,0,5.8c-4.6-4.2-3.7-14-15.1-17.5
		c-3.1,9.3,2.4,24.4,32.1,32.5l0,0c-7-33.1-20.8-43.8-28.6-36.5c7.9,4.5,10.8,10.3,11.6,15.6c-5.4-5.4-9.9-11.6-13.3-18.4
		c-4.9-9.8-7.6-20.7-7.6-31.6c0.1-10.9,2.9-21.7,7.8-31.4c5-9.7,12.2-18.2,21-24.5c16.6-12,37.7-15.9,58.2-17.1
		c20.5-1.2,41.3,0.2,62-2.4c14.4-1.9,28.7-5.8,41.2-13.6c0,0,0,0,0,0c0.5-0.3,1-0.6,1.4-0.9c11.2,1.8,22.8,1,33.8-1.9
		c17.1-4.5,32.6-13.8,45.8-25.2c13.2-11.3,24.4-24.7,34.9-38.3l0,0c10.5-13.7,20.4-27.7,31.2-40.7c14.3-17.2,30.5-32.8,48.2-46.5
		c17.7,13.7,33.9,29.3,48.2,46.5c10.8,13,20.7,27,31.3,40.6l0,0c10.5,13.6,21.7,26.9,34.9,38.2c13.3,11.4,28.8,20.6,45.9,25.1
		c10.9,2.9,22.6,3.6,33.8,1.8c0.5,0.3,1,0.6,1.4,0.9c0,0,0,0,0,0c12.4,7.8,26.8,11.7,41.2,13.6c20.7,2.7,41.5,1.2,62,2.4
		c20.5,1.2,41.6,5.1,58.2,17c8.8,6.3,16,14.8,21,24.5c5,9.7,7.8,20.5,7.9,31.4c0.1,10.9-2.6,21.8-7.5,31.6
		c-3.4,6.8-7.9,13-13.3,18.4c0.7-5.3,3.6-11.1,11.5-15.6c-7.7-7.3-21.5,3.4-28.5,36.6v0c29.6-8.2,35.1-23.3,32-32.6
		c-11.3,3.5-10.4,13.4-15.1,17.6c-0.2-1.8-0.3-3.7,0-5.8c5.5-5.3,10.1-11.6,13.6-18.4c5-9.8,7.9-20.7,7.9-31.7
		c0.1-11-2.7-22-7.6-31.9c-5-9.9-12.2-18.6-21.1-25.2c0,0,0,0,0,0c-16.8-12.3-38.2-16.6-58.9-18c-20.7-1.4-41.5-0.2-61.8-3
		c-13.5-1.9-26.9-5.6-38.4-12.7c4.7-1.1,9.3-2.6,13.8-4.7l0,0c6.8-3.2,13.1-7.7,18.3-13.2c5.2-5.6,9.1-12.3,11.2-19.7
		c1.7-5.8,2.1-11.9,1.3-17.8c5.6-2.2,10.6-5.7,14.8-10c5.3-5.5,9.2-12.3,11.4-19.6c2.3-7.3,2.9-14.9,2.3-22.5v0
		c-0.4-4.9-1.4-9.6-2.8-14.3c11.8,6.4,21.8,16.1,30.2,26.9c12.6,16.1,22,34.7,33.6,51.9c11.5,17.3,26,33.6,45.1,42c0,0,0,0,0,0
		c10.1,4.4,21.4,6.3,32.4,5.7c11-0.6,21.9-3.8,31.4-9.4c9.5-5.6,17.6-13.5,23.5-22.8c4.1-6.5,7.3-13.6,9.1-21c1.6-1.2,3.3-2.2,5-2.9
		c-1.3,6.1-10.2,10.2-7.6,21.8c9.5-2,19.9-14.3,12.1-44h0c-25.2,22.7-27.5,40-17.4,43c0-9.1,3.5-14.5,7.8-17.8
		c-1.9,7.3-5.1,14.4-9.3,20.7c-6,9.1-14.1,16.9-23.5,22.3c-9.5,5.4-20.3,8.4-31.1,8.9c-10.9,0.5-21.9-1.4-31.7-5.9
		c-18.6-8.4-32.6-24.7-43.9-41.9c-11.3-17.2-20.5-35.9-33.1-52.5c-8.8-11.5-19.4-22-32.4-28.8c0,0,0,0,0,0c-0.5-0.3-1-0.5-1.5-0.8
		c-4-10.6-10.5-20.3-18.5-28.3c-12.5-12.6-28.2-21.3-44.7-27.1c-16.4-5.8-33.6-8.8-50.6-11.1h0c-17.1-2.3-34.1-3.8-50.8-6.7
		C948.2,814.7,926.6,808.5,905.9,800.1z M867.3,599.4c3.3,2.5,6.9,4.6,10.8,6c7.9,2.9,16.7,3.2,24.9,1.2c8.1-2,15.6-6.4,21.5-12.3
		c8.1-8.1,13.1-18.8,15.2-29.9c4.7,7.1,8.2,15,10.4,23.3v0c4.2,15.9,3.7,33,0.5,49.4c-3.2,16.4-9.1,32.2-15.7,47.8
		c-6.6,15.7-14,31.2-20.2,47.4v0c-9,23.6-15,48.2-18.2,73.2c23.3,9.7,47.7,16.8,72.5,20.8l0,0c17.1,2.7,34.3,4.1,51.2,6.2
		c16.8,2.1,33.5,4.8,49.3,10.2c15.8,5.4,30.8,13.5,42.5,25.1h0c6,6,11.2,13,15,20.6c-10.7-3.7-22.4-4.7-33.5-1.8
		c-8,2.2-15.5,6.5-21.4,12.5c-5.8,6-9.9,13.8-11.4,22.1c-0.7,4.1-0.8,8.2-0.2,12.3c-3.8,1.5-7.4,3.7-10.6,6.3
		c-6.5,5.4-11.2,12.9-13.5,20.9c-2.3,8.1-2.3,16.7-0.1,24.8c3,11.1,9.7,20.7,18.3,28.1c-8.5,0.5-17.1-0.4-25.3-2.7l0,0
		c-15.9-4.3-30.4-13.3-43-24.2c-12.6-11-23.3-24-33.5-37.5c-10.3-13.6-20-27.8-31-41.2h0c-15.9-19.5-34.2-37.1-54.3-52.4
		c-20.1,15.3-38.3,32.9-54.2,52.4l0,0c-10.9,13.5-20.7,27.6-31,41.2C772.1,963,761.4,976,748.8,987c-12.6,11-27.1,20-43,24.3l0,0
		c-8.2,2.2-16.9,3.2-25.3,2.7c8.6-7.4,15.3-17.1,18.3-28.1c2.1-8.1,2.2-16.7-0.1-24.8c-2.3-8.1-7-15.5-13.5-20.9
		c-3.2-2.6-6.7-4.8-10.6-6.3c0.6-4.1,0.5-8.3-0.2-12.3c-1.5-8.3-5.5-16.1-11.4-22.1c-5.8-6-13.3-10.3-21.4-12.5
		c-11.1-3-22.8-1.9-33.5,1.8c3.8-7.6,8.9-14.6,15-20.6l0,0c11.7-11.6,26.7-19.7,42.5-25.2c15.8-5.4,32.5-8.2,49.3-10.3
		c16.9-2.1,34.1-3.5,51.2-6.2h0c24.9-4,49.3-11.1,72.5-20.8c-3.2-25-9.3-49.6-18.3-73.2v0c-6.2-16.2-13.6-31.7-20.2-47.4
		c-6.6-15.6-12.6-31.4-15.8-47.8c-3.2-16.4-3.7-33.5,0.5-49.4v0c2.2-8.2,5.6-16.2,10.3-23.3c2.1,11.2,7.1,21.8,15.2,29.9
		c5.9,5.9,13.4,10.2,21.5,12.3c8.1,2,16.9,1.7,24.9-1.2C860.5,604,864.1,601.9,867.3,599.4z M953.3,772.7
		c13.5-46.5,33.4-91.2,59.3-132.2c21.3-33.6,46.4-64.7,72.4-95.1c26-30.5,53-60.3,78.2-91.7c1.2-1.5,2.5-3.1,3.7-4.6
		c-2.6,3.6-5.2,7.3-7.9,10.9l0,0c-25.3,34.5-52.4,67.8-78.6,102.3c-26.1,34.3-51.3,70-72.1,108.5c-16,29.6-29,60.7-39.2,92.8
		c32.9,7.2,66.3,11.4,99.9,12.3c43.8,1.2,87.2-2.9,130-8.4c42.9-5.5,85.4-12.4,127.9-17.1h0c4.5-0.5,8.9-1,13.4-1.4
		c-2,0.3-3.9,0.6-5.9,0.9c-39.8,6.2-79.1,14.7-118.5,22c-39.3,7.3-78.8,13.5-118.6,15.2C1049,789.3,1000.3,784.2,953.3,772.7z
		 M781.6,772.8c-47.1,11.6-95.7,16.7-144.1,14.7c-39.7-1.6-79.3-7.8-118.6-15.1c-39.4-7.3-78.7-15.7-118.5-21.9
		c-1.9-0.3-3.9-0.6-5.9-0.9c4.5,0.4,8.9,0.9,13.4,1.4h0c42.5,4.6,85,11.5,127.9,16.9c42.8,5.4,86.2,9.4,130,8.2
		c33.6-1,67.1-5.2,99.9-12.5c-10.2-32.1-23.3-63.2-39.3-92.7c-20.9-38.5-46.1-74.1-72.3-108.4c-26.2-34.4-53.4-67.7-78.7-102.2v0
		c-2.6-3.6-5.3-7.2-7.9-10.9c1.2,1.5,2.5,3.1,3.7,4.6c25.3,31.3,52.3,61.1,78.3,91.6c26,30.4,51.1,61.5,72.5,95.1
		C748.2,681.6,768.1,726.3,781.6,772.8z M1001,745.1c7.6-21.8,16.7-43.1,27.3-63.7c19.1-37.4,43-72.6,68.1-107.2
		c25.2-34.6,51.7-68.7,76.6-104.2c14.3-20.5,28.1-41.5,40.5-63.3c43.1-25.3,79.4-61.9,104.1-105c25.8-44.9,39-96.6,38-148
		c-0.2-13.2-1.6-27-8.4-38.5c-3.4-5.8-8.2-10.8-14.1-14c-5.9-3.2-13-4.4-19.5-2.8c0,0,0,0,0,0c-7.5,1.8-13.9,7.4-16.7,14.4
		c-2.5,4.9-6.3,13.8-5.4,20.3c1.3,9.3,7.6,14.2,15.9,10.8c8.4-3.4,16-13.5,14.8-20.1c-1.2-6.6-8.4-7.1-12.8-3
		c-3.6,3.3-5.6,12.1-10.9,9.9c-4.2-1.7-1.5-14.1-0.2-19.2c3.2-6,9.1-10.5,15.6-11.9c6.2-1.4,12.9,0,18.4,3.1
		c5.5,3.1,10,8.1,13.1,13.6c6.3,11.1,7.2,24.5,7.2,37.5c-0.3,50.8-14.6,101.4-40.8,144.5c-22.1,36.3-52.5,67.4-88.1,90.2
		c5.5-10.3,10.6-20.9,15.4-31.6c17.7-39.6,30.1-82.1,32.6-125.7c2.3-38.6-3.6-78.6-22.3-112.8c-9.4-17.1-22.1-32.5-37.5-44.5
		c-5.5-4.3-11.4-8.2-17.6-11.5c-25.2-25.7-57.5-45.4-92.3-51c-15.6-2.5-31.6-2.8-47,0c-15.5,2.8-30.4,8.7-43.1,17.8
		C1005.4,33.9,989,54,984,60c13.2,4.1,34.1-10.4,28.3-29.8c12.9-8.5,27.8-13.5,43-15.5c15.2-2,30.6-1,45.5,2.1
		c28,5.9,56.2,18.2,78,36.6c-16.3-10.3-34-17.8-52.1-20.7c-15.6-2.5-31.5-2.8-47,0c-15.5,2.8-30.4,8.7-43.1,17.8
		c-6.3,4.6-12,10-17,15.9c15.2,8.2,30.9-11.3,33.4-21c12.9-8.5,11.9-7.6,27.1-9.6c15.2-2,30.6-1,45.6,2.1
		c13.1,2.7,26.3,7.3,38.9,13.3c-1.9-0.4-3.9-0.8-5.8-1.2c-20-3.5-41.1-1.2-59.5,7.2c-11.8,5.4-22.4,13.3-30.8,23
		c-2,2.1-3.8,4.3-5.6,6.6v0c-9.4,12.5-15.1,27.9-15.5,43.5c-0.4,15.6,4.6,31.4,14.4,43.6c0,0,0.1,0.1,0.1,0.1
		c8,11.2,19.3,20,32.2,24.5c14.2,4.9,30.2,4.6,44.1-0.8c5.6-1.3,11.1-3.3,16-6.1c21.2-12.4,32.5-31.6,25-47
		c-7.4-15.4-29.8-22.3-44.8-12.9s-16.3,26.2-7.4,32.1c7.3,4.9,27,0.4,22,14.4c-3.6,10-26.6,16.4-39.6,19.3c-5.1-0.2-10.2-1-15.1-2.4
		c-4.3-1.2-8.5-3-12.5-5.1c-11.9-8.1-21.1-20.2-25.7-33.8c-6.1-18.2-4.2-38.8,4.4-55.8c8.6-17,23.7-30.5,41.1-38.1
		c17.5-7.5,37.3-9.2,55.9-5.5c18,3.5,34.9,11.9,49.1,23.4l0,0c5.9,4.7,11.2,10,16.2,15.7c0.2,0.2,0.4,0.5,0.6,0.7l0,0l0,0
		c6.8,8,12.6,16.8,17.5,26.1c17.1,32.5,21.7,70.6,18.8,107.6c-3.3,41.7-16.1,82.4-34,120.4c-2,4.3-4.1,8.5-6.2,12.7
		c-17.4,30.7-38.3,59.4-60.7,86.8c-7.8,9.6-15.8,19-23.9,28.4c11.7-24.4,16.9-47.3,13.9-75.2c-3.4-31.5-16.5-61.7-37-85.6
		c-20.6-23.9-47.5-40.8-74.5-55.8c-27-15-54.8-28.5-79.2-47c-15.4-11.7-29.7-25.8-36.4-43.8c-3.3-9-4.7-18.8-3.1-28.3
		c1.6-9.5,6.2-18.5,13.4-24.9c5-4.4,11.3-7.5,17.9-8.8c0.5-0.1,1.1-0.2,1.6-0.3c-0.1,0.1-0.2,0.1-0.2,0.1l0,0c0,0,16.6-1.8,18.9,3.7
		c2.4,5.5-5.2,5.7-7.7,8.6c-3.1,3.5-2,10.5,3.9,12.9c6,2.4,14.1-3,16.3-10.4c2.2-7.4-2.7-14.3-11.1-17.3c-6.6-2.4-15.6,0.6-19,2
		c-1,0.1-2,0.2-3,0.4c-6.7,1.2-13.1,4.2-18.4,8.6c-7.5,6.4-12.4,15.6-14.3,25.3c-1.8,9.7-0.7,19.9,2.6,29.2
		c6.5,18.7,20.9,33.5,36.3,45.7c1.3,1,2.6,2,3.9,3L884,187.1l76.8,37.7c-3.2-0.7-6.6-1.2-9.9-1.2c-16.7-0.2-33.3,5-46.7,14.5
		c-13.4,9.5-23.5,23.3-28.6,38.7c-5.1,15.4-5.1,32.2-0.2,47.4c2.9,8.9,4.7,13.8,10.6,21c-5.5-7.5-6.9-12.5-9.3-21.4
		c-4.1-15.1-3.2-31.4,2.4-45.8c5.6-14.4,15.8-26.8,28.5-35c12.8-8.2,28.1-12.1,43-11.2c9.7,0.6,21,0.8,30.8,3.4
		c17.4,11.1,35.7,20.9,53.5,31.2c26.6,15.5,52.6,32.6,71.7,55.8c19.1,23.2,31,52.2,33.6,82c2.4,27.4-3,60.7-15.2,85.9
		c-14.9,17-30,33.9-44.8,51v0c-1.4,1.6-2.8,3.2-4.2,4.9c6.8-21.1,8.7-43.7,5-65.5c-3-18.3-10.1-36.4-22.5-50.5
		c-6.2-7-13.7-13-22.2-17.1c-8.5-4.1-17.9-6.3-27.3-6c-10.1,0.3-19.9,3.4-28.4,8.7c-8.5,5.3-15.5,12.6-20.6,21.1
		c-10.1,17-12.1,38-7.2,56.8c4.7,18.2,15.8,34.7,30.6,46c14.1-36.9-16.1-36.2-29.2-46.3c-4.3-18.6-1.8-39,8.3-54.9
		c5.1-8,11.9-14.8,20-19.5c8.1-4.7,17.3-7.4,26.6-7.4c8.7,0,17.3,2.2,25,6.2c7.7,4,14.5,9.6,20.1,16.3
		c11.2,13.3,17.3,30.4,19.8,47.8c0.6,4,0.9,8,1.1,12c-1.2-4.7-2.9-9.3-5.1-13.6c-7.1-14.3-18.8-26-32.9-33
		c-5.5-2.7-11.4-4.7-17.6-5.6c-6.2-0.8-12.5-0.4-18.5,1.5c-5.9,1.9-11.4,5.5-15.3,10.4c-3.9,4.9-6.1,11.1-5.8,17.3
		c0.2,4.2,1.6,8.4,3.9,11.9c2.3,3.5,5.5,6.3,9.2,8.1c3.7,1.8,7.9,2.6,11.9,2.3c4.1-0.3,8-1.8,11.3-4.1c-3.4,2.1-7.4,3.3-11.3,3.5
		c-4,0.1-7.9-0.9-11.3-2.8c-3.4-1.9-6.3-4.7-8.2-8c-1.9-3.3-3-7.2-3-11c0-5.5,2.3-11,5.9-15.1c3.6-4.1,8.6-7,13.9-8.5
		c5.3-1.5,11-1.5,16.4-0.5c5.4,1,10.7,3.1,15.6,5.8c12.5,7,22.6,18.2,28.1,31.1c4.5,16,8.6,26,11.8,32.1
		c-1.3,10.5-3.9,20.8-7.6,30.6c-2.6,7-5.3,14.1-8.4,20.9c-18.4,22.2-35.9,45.1-51.6,69.4c-28.2,43.8-49.5,91.8-63.6,142
		c50.5,12.8,102.8,18.3,154.8,15.7c28.9-1.4,57.5-5.2,85.9-10.1c7.5,0.8,14.9,2,22.3,3.2c10.4,1.7,20.6,4.6,30.3,8.7
		c3.7,5.8,10.3,14.3,21.9,26.2c8.4,11.3,13.1,25.6,12.9,39.9c-0.1,5.6-0.9,11.2-2.7,16.4c-1.8,5.2-4.7,10.1-8.6,14
		c-3.9,3.9-8.9,6.7-14.3,7.8c-5.4,1.1-11.2,0.3-16.1-2.4c-3.3-1.9-6.1-4.7-8-8c-1.9-3.3-2.9-7.2-2.9-11.1c0.1-3.9,1.2-7.8,3.3-11.2
		c2.1-3.4,5.1-6.2,8.6-8.1c-3.6,1.7-6.8,4.4-9.2,7.8c-2.3,3.4-3.7,7.4-4,11.5c-0.3,4.1,0.6,8.3,2.5,12.1c1.9,3.7,4.8,7,8.4,9.3
		c5.2,3.3,11.7,4.6,17.9,3.6c6.2-0.9,12-3.8,16.6-8c4.6-4.2,8.2-9.5,10.5-15.3c2.3-5.8,3.6-11.9,4-18c1-15.7-3.2-31.7-12.1-45
		c-2.7-4-5.8-7.8-9.3-11.2c3.4,2.1,6.7,4.5,9.8,6.9c13.8,10.8,25.7,24.7,31.6,41c3,8.2,4.5,16.9,4.1,25.5
		c-0.4,8.6-2.8,17.2-7.1,24.7c-4.6,8-11.6,14.7-19.7,19.3c-8.1,4.6-17.4,7.2-26.9,7.6c-18.8,0.8-37.8-7.2-51.7-20.2
		c-2.2-16.5,13.5-42.3-25.6-48.5c2.4,18.5,11.1,36.3,24.6,49.5c13.9,13.7,33.1,22.4,52.8,22.1c9.9-0.2,19.8-2.6,28.5-7.3
		c8.8-4.7,16.4-11.7,21.7-20.3c4.9-8,7.7-17.3,8.4-26.7c0.7-9.4-0.7-18.9-3.7-27.8c-6-17.8-18.2-32.9-32.6-44.7
		c-17.1-14-37.6-23.6-59.2-28.3c2.1-0.4,4.2-0.8,6.3-1.2v0c22.2-4.3,44.4-9,66.5-13.4c28,2,59.6,13.9,82.1,29.7
		c24.5,17.1,43.8,41.9,54.3,70c10.6,28.2,12.5,59.3,12.6,90c0.1,20.5-0.6,41.3,0.3,61.9c-2.6,9.8-8.2,19.7-12.4,28.3
		c-6.6,13.4-17.7,24.7-31.1,31.7c-13.4,7-29.3,9.6-44.5,7.3c-15.2-2.4-29.8-9.7-40.9-20.8c-6.5-6.5-10.2-10.2-13.9-18.7
		c3.3,8.6,6.6,12.7,12.9,19.7c10.7,11.8,25.3,20.2,41.2,23.5c15.9,3.3,32.9,1.4,47.8-5.5c15-6.9,27.7-18.6,35.9-33.2
		c1.6-2.9,2.9-6,3.9-9.2l-5.7,85.4l9-82.6c0.2,1.6,0.4,3.3,0.7,4.9c2.8,19.4,8.6,39.3,21.5,54.2c6.5,7.5,14.7,13.5,24,16.8
		c9.3,3.3,19.8,3.6,29,0.2c6.5-2.3,12.3-6.4,16.6-11.7c0.6-0.8,1.2-1.6,1.8-2.4c2.9-2.3,9.9-8.5,11.2-15.5c1.6-8.8-2-16.5-9.5-18.2
		c-7.5-1.7-16.3,2.6-17.2,9c-0.9,6.3,4.6,10.8,9.2,9.8c3.8-0.8,7.8-7.2,11.3-2.4c3.5,4.8-6.3,18.2-6.3,18.2l0,0c0,0,0.1,0,0.2-0.1
		c-0.3,0.4-0.7,0.9-1.1,1.3c-4.4,5.1-10.2,9-16.6,11.1c-9.1,3.1-19.3,2.5-28.3-0.8c-9-3.3-16.9-9.4-23-16.8
		c-12.3-14.7-17.4-34.2-19.8-53.4c-3.9-30.4-1.7-61.2-1.2-92.1c0.5-30.9-0.7-62.7-11.1-92.4c-10.5-29.7-30.1-56.2-55.7-74.8
		c-22.7-16.5-45.1-23.5-72.1-25.4c12.1-2.3,24.3-4.5,36.5-6.5c34.9-5.7,70.2-9.5,105.5-9.3c4.7,0.2,9.4,0.6,14.1,0.9
		c41.9,3.4,83.6,12.6,121.3,30.6c33.4,16,64.2,39,83.8,70c5.6,8.9,10.3,18.3,13.8,28.2l0,0l0,0c0.1,0.3,0.2,0.6,0.3,0.9
		c2.5,7.1,4.4,14.4,5.6,21.9c0,0,0,0,0,0c2.9,18.1,1.7,36.9-4.2,54.2c-6.2,18-17.5,34.3-32.7,45.7c-15.2,11.4-34.5,17.7-53.5,16.6
		c-19-1-37.9-9.6-50.5-24c-9.5-10.7-15.4-24.8-16.4-39.1c0.1-4.5,0.7-9,1.8-13.4c1.2-5,3.1-9.8,5.5-14.3c9-9.8,26-26.6,36.5-24.7
		c14.7,2.7,0.9,17.5,1.5,26.3c0.7,10.7,15.9,17.9,31.5,9.6s20.9-31.1,11.2-45.3c-9.6-14.1-31.9-13.9-53.3-1.8
		c-4.9,2.8-9.4,6.6-13.3,10.8c-11.7,9.4-19.9,23-22.7,37.8c-2.5,13.4-0.5,27.6,5.2,40.1c0,0,0,0.1,0,0.1
		c5.7,14.5,16.9,26.8,30.6,34.2c13.8,7.5,29.9,10.2,45.5,8.3l0,0c2.9-0.4,5.7-0.9,8.5-1.5c12.6-2.4,24.8-7.7,35.3-15.2
		c16.5-11.8,28.9-28.9,35.9-48c0.7-1.9,1.3-3.8,1.9-5.7c-1.1,13.9-3.7,27.6-7.9,40.4c-4.8,14.5-11.6,28.4-20.9,40.5
		c-9.3,12.1-8.1,11.8-21.8,18.7c-9.6-2.6-34.4,1.2-34.9,18.5c7.7-1.3,15.2-3.6,22.3-6.8c14.2-6.4,26.8-16.4,36.9-28.4
		c10.1-12,17.8-26,23.4-40.8c6.5-17.2,8.8-36.3,8.1-55.5c5,28.1,1.7,58.7-7.2,85.9c-4.7,14.5-11.6,28.4-20.9,40.5
		c-9.3,12.1-21.1,22.5-34.9,29.5c-14-14.7-37-3.8-40,9.7c7.7-1.3,33.3-5.5,40.5-8.7c14.2-6.4,26.8-16.4,37-28.4
		c10.1-12,17.9-26,23.5-40.8c12.5-32.9,11.6-70.8,1.9-105.4c0.2-7-0.2-14.1-1.2-21c-2.7-19.4-9.7-38-19.9-54.7
		c-20.3-33.3-52-58.4-86.6-75.7c-39-19.5-82-30-125.2-34.4c-11.7-1.2-23.4-2-35.1-2.4c37.5-19.4,79.7-30.3,122.2-31.3
		c50.5-1.2,101.4,11.6,145.6,36.7c11.3,6.5,22.4,13.9,28.9,24.9c3.3,5.5,5.3,11.8,5.3,18.1c0,6.4-2.2,12.8-6.5,17.5
		c-4.5,5-11.3,7.8-18.1,7.6c-5.1-1.4-17.2-5.3-16.6-9.8c0.8-5.6,9.4-3,14-4.5c5.7-1.9,8.9-8.3,3.8-12.7c-5.1-4.3-17.6-2.8-24.8,2.8
		c-7.2,5.5-6.1,13.4,1.4,19.2c5.1,4,14.8,5.1,20.3,5.4c7.5,1,15.5-1.8,20.8-7.3l0,0c4.6-4.9,7.1-11.6,7.3-18.3
		c0.2-6.7-1.8-13.4-5.1-19.2c-6.6-11.7-17.9-19.8-29.2-26.5c-44-26.5-95.5-40.9-147.2-40.9c-49.7-0.1-99.5,13.1-143,37.8
		c-25.1-0.1-50.2,1.3-75.1,3.6c-43.2,3.8-85.9,9.9-128.5,14.4c-42.5,4.5-84.9,7.6-126.9,5.5C1046.8,752.1,1023.8,749.3,1001,745.1z
		 M733.8,745.2c-22.7,4.3-45.7,7.1-68.8,8.2c-42,2.1-84.4-0.9-126.9-5.4c-42.6-4.5-85.3-10.5-128.5-14.3c-24.9-2.2-50-3.6-75.1-3.5
		c-43.5-24.7-93.3-37.8-143-37.7c-51.7,0.1-103.2,14.6-147.2,41.1c-11.3,6.8-22.6,14.9-29.2,26.6c-3.3,5.8-5.2,12.5-5,19.2
		c0.2,6.7,2.7,13.4,7.3,18.3l0,0c5.3,5.6,13.3,8.3,20.8,7.3c5.5-0.3,15.1-1.4,20.3-5.4c7.5-5.8,8.5-13.7,1.4-19.2
		c-7.2-5.5-19.6-7.1-24.8-2.8c-5.1,4.3-1.9,10.8,3.8,12.6c4.7,1.5,13.2-1.2,14,4.5c0.6,4.4-11.4,8.4-16.6,9.8
		c-6.8,0.2-13.6-2.7-18.1-7.6c-4.3-4.7-6.5-11.2-6.5-17.5c0-6.4,2-12.7,5.2-18.1c6.5-11,17.6-18.5,28.9-25
		c44.2-25.2,95.1-38,145.6-36.9c42.5,0.9,84.6,11.8,122.2,31.2c-11.7,0.4-23.4,1.2-35,2.4c-43.2,4.4-86.1,15-125.1,34.6
		c-34.6,17.3-66.3,42.4-86.5,75.8c-10.1,16.7-17.1,35.3-19.8,54.7c-1,7-1.4,14-1.1,21c-9.6,34.6-10.5,72.5,2,105.4
		c5.6,14.7,13.4,28.7,23.5,40.7c10.1,12,22.7,22,37,28.4c7.1,3.2,32.8,7.4,40.5,8.6c-3-13.5-26-24.4-40-9.6
		c-13.8-6.9-25.6-17.3-34.9-29.4c-9.3-12.1-16.1-26-20.9-40.5c-8.9-27.2-12.3-57.7-7.3-85.9c-0.7,19.3,1.6,38.3,8.1,55.5
		c5.6,14.7,13.4,28.7,23.5,40.7c10.1,12,22.7,22,37,28.4c7.1,3.2,14.6,5.5,22.3,6.7c-0.5-17.3-25.3-21.1-34.9-18.5
		c-13.8-6.9-12.5-6.6-21.8-18.7c-9.3-12.1-16.2-26-20.9-40.5c-4.2-12.7-6.9-26.4-8-40.3c0.6,1.9,1.2,3.8,1.9,5.6
		c7,19.1,19.5,36.2,36,48c10.5,7.5,22.7,12.7,35.3,15.1c2.8,0.7,5.7,1.2,8.5,1.5l0,0c15.5,1.9,31.7-0.8,45.5-8.3
		c13.7-7.5,24.9-19.7,30.6-34.3c0,0,0-0.1,0-0.1c5.7-12.5,7.7-26.7,5.1-40.1c-2.8-14.8-11.1-28.4-22.8-37.8
		c-3.9-4.2-8.4-7.9-13.3-10.7c-21.4-12.1-43.6-12.3-53.3,1.8c-9.6,14.2-4.4,37,11.3,45.2s30.8,1,31.5-9.7
		c0.6-8.7-13.2-23.6,1.5-26.3c10.4-1.9,27.5,14.8,36.5,24.6c2.4,4.5,4.3,9.3,5.5,14.3c1.1,4.4,1.7,8.9,1.8,13.4
		c-1,14.4-6.9,28.4-16.4,39.1c-12.7,14.4-31.5,23-50.5,24.1c-19,1.1-38.3-5.2-53.5-16.6c-15.3-11.4-26.6-27.7-32.8-45.7
		c-6-17.3-7.2-36.2-4.3-54.2c0,0,0,0,0,0c1.2-7.4,3.1-14.8,5.6-21.9c0.1-0.3,0.2-0.6,0.3-0.9l0,0l0,0c3.5-9.9,8.2-19.3,13.8-28.2
		c19.6-31.1,50.3-54.1,83.7-70.1c37.8-18,79.4-27.2,121.3-30.7c4.7-0.4,9.4-0.7,14.1-1c35.3-0.3,70.6,3.5,105.5,9.2
		c12.2,2,24.3,4.2,36.5,6.5c-27,2-49.4,9-72.1,25.5c-25.6,18.7-45.2,45.2-55.6,74.9c-10.4,29.8-11.6,61.5-11,92.4
		c0.5,30.9,2.7,61.8-1.1,92.1c-2.5,19.2-7.5,38.7-19.8,53.4c-6.1,7.4-14,13.4-23,16.8c-9,3.3-19.1,3.9-28.3,0.8
		c-6.4-2.1-12.2-6-16.6-11.1c-0.4-0.4-0.7-0.9-1.1-1.3c0.1,0.1,0.2,0.1,0.2,0.1l0,0c0,0-9.8-13.4-6.3-18.2c3.5-4.8,7.5,1.6,11.3,2.4
		c4.6,1,10.1-3.5,9.2-9.8c-0.9-6.3-9.7-10.7-17.2-9c-7.5,1.8-11.1,9.5-9.5,18.2c1.3,6.9,8.3,13.2,11.2,15.4c0.6,0.8,1.2,1.6,1.8,2.4
		c4.4,5.2,10.2,9.3,16.6,11.6c9.3,3.3,19.7,3,29-0.3c9.3-3.3,17.6-9.3,24-16.8c12.9-15,18.6-34.9,21.4-54.3c0.2-1.6,0.5-3.3,0.7-4.9
		l9.1,82.6l-5.8-85.4c1,3.2,2.3,6.3,3.9,9.2c8.2,14.6,20.9,26.3,35.9,33.2c15,6.8,32,8.7,47.8,5.4c15.9-3.3,30.5-11.7,41.2-23.5
		c6.3-6.9,9.6-11,12.9-19.7c-3.7,8.5-7.4,12.2-13.9,18.7c-11.1,11.1-25.6,18.5-40.9,20.8c-15.2,2.4-31.1-0.3-44.6-7.2
		c-13.5-7-24.5-18.3-31.2-31.6c-4.3-8.7-9.8-18.5-12.5-28.3c0.9-20.7,0.2-41.4,0.3-61.9c0.1-30.7,1.9-61.8,12.5-90
		c10.5-28.2,29.8-53,54.2-70.1c22.5-15.8,54-27.8,82.1-29.8c22.2,4.4,44.3,9,66.5,13.3l0,0c2.1,0.4,4.2,0.8,6.3,1.2
		c-21.6,4.7-42.2,14.3-59.2,28.4c-14.4,11.8-26.5,26.9-32.5,44.7c-3,8.9-4.4,18.4-3.7,27.8c0.7,9.4,3.5,18.6,8.5,26.7
		c5.3,8.6,12.9,15.5,21.7,20.2c8.8,4.7,18.7,7.1,28.5,7.3c19.7,0.3,38.9-8.5,52.8-22.2c13.4-13.2,22.2-31,24.5-49.5
		c-39,6.2-23.3,32-25.5,48.5c-14,13.1-32.9,21.1-51.7,20.3c-9.4-0.4-18.7-2.9-26.9-7.6c-8.1-4.6-15-11.3-19.7-19.3
		c-4.4-7.5-6.7-16.1-7.1-24.7c-0.4-8.6,1.1-17.4,4-25.5c5.9-16.3,17.7-30.2,31.5-41c3.2-2.5,6.4-4.8,9.8-6.9
		c-3.5,3.4-6.6,7.2-9.3,11.2c-8.9,13.3-13.1,29.3-12.1,45c0.4,6.1,1.6,12.3,4,18c2.3,5.8,5.9,11.1,10.5,15.2
		c4.7,4.2,10.5,7.1,16.7,8c6.2,0.9,12.7-0.3,17.9-3.7c3.6-2.3,6.5-5.5,8.4-9.3c1.9-3.7,2.7-8,2.4-12.1c-0.3-4.1-1.7-8.1-4-11.5
		c-2.3-3.4-5.5-6.1-9.2-7.7c3.6,1.9,6.6,4.7,8.6,8.1c2.1,3.4,3.2,7.3,3.3,11.2c0.1,3.9-0.9,7.8-2.8,11.2c-1.9,3.3-4.7,6.2-8,8
		c-4.8,2.8-10.7,3.5-16.1,2.4c-5.4-1.1-10.4-3.9-14.3-7.8c-3.9-3.9-6.8-8.8-8.6-14c-1.8-5.2-2.6-10.8-2.7-16.4
		c-0.2-14.3,4.4-28.6,12.9-39.9c11.6-11.9,18.2-20.4,21.9-26.2c9.7-4.1,19.9-7,30.3-8.8c7.4-1.2,14.9-2.4,22.3-3.2
		c28.4,4.8,57,8.6,85.9,10c52,2.5,104.3-3.1,154.7-15.9c-14.2-50.1-35.5-98.2-63.7-141.9c-15.7-24.3-33.3-47.2-51.7-69.3
		c-3.1-6.8-5.8-13.9-8.4-20.9c-3.7-9.9-6.3-20.2-7.6-30.6c3.1-6.1,7.3-16.1,11.7-32.1c5.5-12.9,15.6-24.1,28.1-31.1
		c4.9-2.7,10.1-4.8,15.6-5.9c5.4-1,11.1-1,16.4,0.5c5.3,1.5,10.3,4.3,13.9,8.5c3.6,4.1,5.9,9.6,5.9,15.1c0,3.8-1,7.6-2.9,11
		c-1.9,3.3-4.8,6.1-8.2,8c-3.4,1.9-7.4,2.9-11.3,2.8c-4-0.1-7.9-1.3-11.3-3.4c3.3,2.3,7.2,3.7,11.3,4.1c4.1,0.3,8.2-0.5,11.9-2.3
		c3.7-1.8,6.9-4.7,9.2-8.2c2.3-3.5,3.6-7.6,3.8-11.9c0.3-6.2-1.9-12.4-5.8-17.3c-3.9-4.9-9.3-8.5-15.3-10.4
		c-5.9-1.9-12.3-2.3-18.5-1.5c-6.2,0.9-12.1,2.9-17.6,5.6c-14.1,6.9-25.8,18.7-32.9,33c-2.1,4.4-3.8,8.9-5.1,13.7
		c0.2-4,0.5-8,1.1-12c2.5-17.4,8.5-34.6,19.7-47.9c5.6-6.7,12.4-12.3,20.1-16.3c7.7-4,16.3-6.2,25-6.2c9.2,0,18.5,2.7,26.6,7.4
		c8.1,4.7,14.9,11.5,20,19.5c10.1,15.9,12.7,36.3,8.4,54.9c-13.1,10.2-43.4,9.5-29.2,46.4c14.9-11.3,25.9-27.8,30.6-46
		c4.9-18.8,2.9-39.9-7.3-56.8c-5.1-8.5-12.1-15.8-20.6-21.1c-8.5-5.3-18.3-8.3-28.4-8.6c-9.4-0.3-18.8,1.9-27.3,6
		c-8.5,4.1-16,10-22.2,17.1c-12.4,14.1-19.4,32.2-22.4,50.6c-3.6,21.8-1.7,44.4,5.1,65.5c-1.4-1.6-2.8-3.2-4.2-4.8v0
		c-14.8-17.1-30-33.9-44.8-50.9c-12.3-25.2-17.7-58.5-15.4-85.9c2.6-29.8,14.4-58.8,33.5-82c19.1-23.3,45.1-40.4,71.7-55.9
		c17.7-10.3,36-20.1,53.4-31.3c9.8-2.6,21.1-2.8,30.8-3.4c14.9-1,30.2,3,43,11.1c12.8,8.1,23,20.6,28.6,34.9
		c5.6,14.4,6.5,30.7,2.4,45.8c-2.4,8.9-3.8,13.9-9.3,21.4c5.8-7.2,7.7-12.1,10.6-21c4.9-15.2,4.8-32.1-0.3-47.4
		c-5.1-15.4-15.3-29.2-28.7-38.7c-13.4-9.5-30-14.7-46.7-14.5c-3.3,0.1-6.7,0.5-9.9,1.2l76.8-37.8l-76,33.6c1.3-1,2.6-2,3.9-3
		c15.4-12.2,29.7-27,36.2-45.7c3.3-9.3,4.4-19.5,2.5-29.2c-1.8-9.7-6.8-18.9-14.3-25.3c-5.2-4.4-11.7-7.4-18.4-8.6
		c-1-0.2-2-0.3-3-0.4c-3.4-1.3-12.4-4.3-19-2c-8.4,3-13.3,9.9-11,17.3c2.3,7.4,10.4,12.8,16.4,10.4c6-2.4,7-9.4,3.9-12.9
		c-2.6-2.9-10.1-3.1-7.8-8.6c2.4-5.5,18.9-3.7,18.9-3.7l0,0c0,0-0.1,0-0.2-0.1c0.6,0.1,1.1,0.2,1.6,0.3c6.6,1.3,12.9,4.3,17.9,8.8
		c7.2,6.4,11.8,15.4,13.5,24.9c1.6,9.5,0.3,19.3-3,28.3c-6.6,18-21,32.1-36.3,43.9c-24.4,18.5-52.1,32.1-79.2,47.1
		c-27,15-53.9,32-74.5,55.9c-20.5,23.9-33.6,54.2-36.9,85.7c-3,27.9,2.3,50.8,14,75.2c-8.1-9.3-16.1-18.8-23.9-28.3
		c-22.4-27.4-43.4-56.1-60.8-86.7c-2.1-4.2-4.2-8.4-6.2-12.7c-18-38-30.9-78.7-34.2-120.4c-2.9-36.9,1.6-75.1,18.7-107.6
		c4.9-9.3,10.7-18.1,17.5-26.1l0,0l0,0c0.2-0.2,0.4-0.5,0.6-0.7c4.9-5.7,10.3-11,16.1-15.8h0c14.2-11.6,31.1-19.9,49.1-23.5
		c18.6-3.6,38.5-2,55.9,5.5c17.5,7.5,32.6,21,41.2,38c8.6,17,10.6,37.6,4.5,55.8c-4.6,13.6-13.7,25.7-25.7,33.8
		c-4,2.1-8.1,3.9-12.5,5.1c-4.9,1.4-10,2.2-15.1,2.4c-13-2.9-36-9.3-39.6-19.3c-5-14.1,14.7-9.6,22-14.4c8.9-6,7.5-22.7-7.4-32.1
		s-37.4-2.5-44.8,12.9c-7.4,15.4,3.9,34.6,25.1,47c4.9,2.9,10.4,4.8,16,6.1c13.9,5.4,29.9,5.8,44.1,0.8
		c12.9-4.5,24.1-13.3,32.1-24.5c0,0,0.1-0.1,0.1-0.1c9.7-12.2,14.7-28,14.3-43.7c-0.4-15.6-6.1-31-15.6-43.5l0,0
		c-1.7-2.3-3.6-4.5-5.6-6.6c-8.4-9.7-19-17.6-30.8-23c-18.5-8.4-39.5-10.6-59.5-7.1c-2,0.3-3.9,0.7-5.8,1.2
		c12.6-6,25.8-10.6,38.9-13.3c14.9-3.1,30.4-4.2,45.6-2.2c15.2,2,14.2,1.1,27.1,9.5c2.6,9.7,18.3,29.1,33.5,21
		c-5-6-10.7-11.3-17-15.9c-12.6-9.1-27.6-15-43.1-17.8c-15.5-2.7-31.5-2.4-47,0.1c-18.2,2.9-35.8,10.5-52.1,20.8
		c21.9-18.4,50-30.8,78-36.7c14.9-3.1,30.4-4.2,45.5-2.2c15.2,2,30.1,7,43,15.5c-5.8,19.5,15.2,33.9,28.4,29.8
		c-5-6-21.4-26.1-27.8-30.7c-12.6-9.1-27.6-15-43.1-17.8c-15.5-2.8-31.5-2.5-47,0.1c-34.8,5.6-67.1,25.4-92.3,51.1
		c-6.2,3.3-12.1,7.2-17.6,11.5c-15.4,12-28,27.4-37.4,44.5c-18.7,34.2-24.6,74.2-22.2,112.9c2.6,43.5,15,86,32.8,125.6
		c4.8,10.7,10,21.2,15.5,31.5c-35.6-22.8-66.1-53.8-88.2-90.1c-26.3-43.1-40.7-93.6-41-144.5c0-13,0.9-26.4,7.1-37.5
		c3.1-5.6,7.5-10.5,13.1-13.6c5.5-3.1,12.2-4.5,18.4-3.2c6.5,1.4,12.4,5.9,15.7,11.8c1.3,5.1,4,17.6-0.2,19.2
		c-5.3,2.1-7.2-6.6-10.9-9.9c-4.5-4-11.7-3.5-12.8,3.1c-1.2,6.6,6.4,16.6,14.8,20.1c8.4,3.4,14.7-1.5,15.9-10.8
		c0.9-6.4-3-15.3-5.5-20.3c-2.9-7-9.3-12.6-16.8-14.4l0,0c-6.5-1.6-13.6-0.3-19.5,2.8c-5.9,3.2-10.7,8.2-14.1,14
		c-6.8,11.6-8.2,25.4-8.4,38.6c-0.9,51.4,12.3,103.1,38.2,148c24.8,43.1,61.1,79.6,104.3,104.9c12.5,21.8,26.2,42.8,40.6,63.2
		c24.9,35.5,51.5,69.5,76.7,104.1c25.1,34.5,49,69.7,68.2,107.1C717,702.1,726.1,723.4,733.8,745.2z"/>
	<path d="M1342.2,210c3.9-11.7-3.4-31.4-42.4-43.2c9.5,42.9,27.7,57.2,37.8,48.2c-14.5-8.6-16.3-19.9-15.4-28.2
		C1328.4,192.3,1327.3,204.9,1342.2,210z"/>
	<path d="M99.8,717.3c-12.1,2.5-25.5,18.6-16.2,58.3c32.4-29.7,35.7-52.6,22.9-56.9c-0.2,16.9-9,24.1-16.7,27.4
		C91.4,738.1,102.9,732.8,99.8,717.3z"/>
	<path d="M1635,716.4c12.1,2.4,25.5,18.6,16.3,58.3c-32.4-29.6-35.7-52.6-22.9-56.8c0.2,16.9,9.1,24.1,16.7,27.4
		C1643.4,737.2,1632,731.8,1635,716.4z"/>
	<path d="M392,210.5c-4-11.7,3.3-31.4,42.3-43.3c-9.5,42.9-27.7,57.3-37.8,48.3c14.5-8.6,16.3-19.9,15.4-28.2
		C405.8,192.9,406.9,205.5,392,210.5z"/>
	<polygon points="1299.9,166.7 1299.9,166.7 1299.9,166.7 	"/>
	<polygon points="83.6,775.6 83.6,775.6 83.6,775.6 	"/>
	<polygon points="1651.3,774.7 1651.3,774.7 1651.3,774.7 	"/>
	<polygon points="434.3,167.3 434.3,167.3 434.3,167.3 	"/>
	<path d="M1358.1,217.3c7-15.4,18-18.4,26.4-18.3c-4.9,6.7-17.5,6.9-20.9,22.3c12.1,2.7,30.8-6.7,38.5-46.7l0,0
		C1360.4,188.6,1348.1,208.2,1358.1,217.3z"/>
	<path d="M98.2,699.9c-16.8,1.6-24.9-6.4-29.1-13.7c8.2,0.9,14.8,11.7,29.8,7c-3.7-11.8-21.2-23.4-59.7-9.9l0,0
		C72.2,712.3,95.4,713.1,98.2,699.9z"/>
	<path d="M1636.6,699c16.8,1.6,24.9-6.4,29.1-13.7c-8.2,0.9-14.8,11.7-29.8,7c3.7-11.8,21.2-23.4,59.7-10v0
		C1662.6,711.3,1639.4,712.2,1636.6,699z"/>
	<path d="M376.1,217.9c-7-15.4-18-18.3-26.4-18.3c4.9,6.7,17.5,6.9,21,22.3c-12.1,2.7-30.8-6.7-38.5-46.7h0
		C373.8,189.2,386.1,208.8,376.1,217.9z"/>
</g>
</svg>
